<svg id="Layer_1" data-name="Layer 1" xmlns="http://www.w3.org/2000/svg" viewBox="0 0 800 800"><defs><style>.cls-1{fill:#f5f5f5;}.cls-2{fill:#e69962;}.cls-3{fill:#ffe5ba;}.cls-4{fill:#ebad81;}.cls-5{fill:#406187;}.cls-6{fill:#ededed;}.cls-7{fill:#3b2525;}.cls-8{fill:#4f3131;}.cls-9{fill:#fff;}.cls-10{fill:#7088a5;}.cls-11{fill:#525355;}.cls-12{fill:#f1f2f2;}.cls-13{fill:#fdcd85;}.cls-14{fill:#dab289;}.cls-15{fill:#379bc2;}.cls-16{fill:#297492;}</style></defs><title>app</title><path class="cls-1" d="M745.43,398.63C745.43,590.45,589.93,746,398.1,746S50.77,590.45,50.77,398.63,206.27,51.3,398.1,51.3,745.43,206.82,745.43,398.63Z"/><path class="cls-2" d="M479.18,182.12S321.64,196.54,278,146.81c0,0,162.65-88.4,233.17,30.05,0,0,55.15,16.23,44,84.26,0,0-12.24-17.19-30-15.15S479.18,182.12,479.18,182.12Z"/><path class="cls-3" d="M537,342.23c0,70.18-60.79,131-142.73,131s-148.38-56.87-148.38-127c0-183.57,63.6-187.9,145.55-187.9S537,177.27,537,342.23Z"/><path class="cls-3" d="M274,375.74a20.31,20.31,0,1,1-20.3-20.31A20.33,20.33,0,0,1,274,375.74Z"/><path class="cls-3" d="M514.51,375.74a20.33,20.33,0,1,0,20.33-20.31A20.34,20.34,0,0,0,514.51,375.74Z"/><rect class="cls-3" x="369.29" y="467.48" width="44.3" height="64.72"/><path class="cls-2" d="M401.4,138.36c-107.73-12-136.26,28.87-143.47,73.69,0,0,16,36.29,134.75,36.29s129.11-36.29,129.11-36.29C498.41,153.83,437.67,142.42,401.4,138.36Z"/><path class="cls-2" d="M511,180.17S398.1,96.22,247.81,157.35c0,0,79.33,39.25,102.29,34.94S516,180,511,180.17Z"/><path class="cls-2" d="M535.39,356.71S567.06,230,521.79,212.05c-7.73-3.07-23.26,18.28-23.26,18.28S496.76,280.67,535.39,356.71Z"/><path class="cls-2" d="M246.64,356.71s-32.19-129,13.07-146.94c7.74-3.06,23.81,20.56,23.81,20.56S285.29,280.67,246.64,356.71Z"/><path class="cls-2" d="M278.35,223.43s-28.81-6.51-42.81-36.74c0,0,19.73-11.47,63.39-28.42C324.72,148.23,278.35,223.43,278.35,223.43Z"/><path class="cls-4" d="M509.33,215.38c-15.16,18.34-202.6,44.17-269.08-25,0,0,154.52,37.15,248,10.28C507.35,195.17,518.76,204,509.33,215.38Z"/><path class="cls-5" d="M596.54,558.82c-4-3.88-87.93-31.37-87.93-31.37-18.78,19-119.07,7.13-119.07,7.13V535c3-.13,4.73-.24,4.73-.24V745.22h0a349.91,349.91,0,0,0,230.85-86.59C620.81,615.19,612.54,574.2,596.54,558.82Z"/><path class="cls-5" d="M192,558.82c4-3.88,87.93-31.37,87.93-31.37,18.79,19,119.07,7.13,119.07,7.13V535c-3-.13-4.72-.24-4.72-.24V745.22h0a349.94,349.94,0,0,1-230.86-86.59C167.73,615.19,176,574.2,192,558.82Z"/><path class="cls-6" d="M394.27,652.66s-40.16,1.91-42.9,0S336,588.77,336.31,579.15s2.91-41.78,15.06-41.78,102.72-24,115.07-4.81S436.55,677.15,394.27,652.66Z"/><path class="cls-7" d="M394.27,527.45v48H381.46a164.14,164.14,0,0,1-16-33.94S378.58,528.73,394.27,527.45Z"/><path class="cls-8" d="M394.27,527.45v48h12.8a163.86,163.86,0,0,0,16-33.94S410,528.73,394.27,527.45Z"/><path class="cls-9" d="M369.29,491.64l-60.81,25.12L354.89,571l39.38-43.54S370,518.27,369.29,491.64Z"/><path class="cls-9" d="M413.59,492.11l66.48,24.65L433.34,571l-39.07-43.54S413.35,519.21,413.59,492.11Z"/><path class="cls-7" d="M381.46,575.48c-13.38,39.07-16,104.08-16,104.08l28.82,54.11V575.48Z"/><path class="cls-8" d="M407.07,575.48h-12.8V733.67l33.73-52S426.39,623.47,407.07,575.48Z"/><polygon class="cls-10" points="457.14 508.26 508.61 527.45 480.07 570.99 498.08 596.93 394.27 733.67 457.14 508.26"/><polygon class="cls-10" points="328.68 508.41 277.21 527.6 305.75 571.15 287.73 597.09 391.55 733.82 328.68 508.41"/><path class="cls-11" d="M362.42,326.79a15.3,15.3,0,1,1-15.3-15.33A15.3,15.3,0,0,1,362.42,326.79Z"/><path class="cls-12" d="M355.13,323.14a6.34,6.34,0,1,1-6.32-6.35A6.35,6.35,0,0,1,355.13,323.14Z"/><path class="cls-11" d="M426.5,326.79a15.31,15.31,0,1,0,15.31-15.33A15.3,15.3,0,0,0,426.5,326.79Z"/><path class="cls-12" d="M433.76,323.14a6.35,6.35,0,1,0,6.37-6.35A6.37,6.37,0,0,0,433.76,323.14Z"/><path class="cls-11" d="M342.45,286.41c-14.4,0-26.74,5-32.94,12.21,0,0,15.44-8.49,32.94-8.49a72.46,72.46,0,0,1,32.94,8.49C369.19,291.4,356.85,286.41,342.45,286.41Z"/><path class="cls-11" d="M446.5,286.41c14.37,0,26.72,5,32.93,12.21,0,0-15.45-8.49-32.93-8.49a72.55,72.55,0,0,0-33,8.49C419.77,291.4,432.09,286.41,446.5,286.41Z"/><path class="cls-13" d="M303.56,365.8a4.14,4.14,0,1,1-4.14-4.37A4.26,4.26,0,0,1,303.56,365.8Z"/><path class="cls-13" d="M290.15,377.87a2.93,2.93,0,1,1-2.92-3.1A3,3,0,0,1,290.15,377.87Z"/><path class="cls-13" d="M293.09,352a2.93,2.93,0,1,1-2.94-3.08A3,3,0,0,1,293.09,352Z"/><path class="cls-13" d="M316.89,355.1A2.95,2.95,0,1,1,314,352,3,3,0,0,1,316.89,355.1Z"/><path class="cls-13" d="M312.59,377.87a2.94,2.94,0,1,1-2.94-3.1A3,3,0,0,1,312.59,377.87Z"/><path class="cls-13" d="M305.41,349.17a1.85,1.85,0,1,1-1.85-1.94A1.88,1.88,0,0,1,305.41,349.17Z"/><path class="cls-13" d="M285.38,363.85a1.88,1.88,0,0,1-1.85,1.95,2,2,0,0,1,0-3.9A1.88,1.88,0,0,1,285.38,363.85Z"/><path class="cls-13" d="M299,382.92a1.84,1.84,0,1,1-1.84-1.95A1.89,1.89,0,0,1,299,382.92Z"/><path class="cls-13" d="M317.62,367.73a1.84,1.84,0,1,1-1.85-1.93A1.89,1.89,0,0,1,317.62,367.73Z"/><path class="cls-13" d="M483,371.45a4.14,4.14,0,1,0,4.13-4.38A4.24,4.24,0,0,0,483,371.45Z"/><path class="cls-13" d="M496.4,383.51a2.94,2.94,0,1,0,2.94-3.09A3,3,0,0,0,496.4,383.51Z"/><path class="cls-13" d="M493.45,357.66a2.95,2.95,0,1,0,2.95-3.09A3,3,0,0,0,493.45,357.66Z"/><path class="cls-13" d="M469.67,360.75a2.94,2.94,0,1,0,2.94-3.09A3,3,0,0,0,469.67,360.75Z"/><path class="cls-13" d="M474,383.51a2.95,2.95,0,1,0,3-3.09A3,3,0,0,0,474,383.51Z"/><path class="cls-13" d="M481.14,354.82a1.86,1.86,0,1,0,1.87-1.94A1.89,1.89,0,0,0,481.14,354.82Z"/><path class="cls-13" d="M501.18,369.5a1.84,1.84,0,1,0,1.85-1.95A1.89,1.89,0,0,0,501.18,369.5Z"/><path class="cls-13" d="M487.59,388.56a1.85,1.85,0,1,0,1.84-1.95A1.9,1.9,0,0,0,487.59,388.56Z"/><path class="cls-13" d="M468.92,373.38a1.85,1.85,0,1,0,1.84-1.93A1.89,1.89,0,0,0,468.92,373.38Z"/><path class="cls-14" d="M393.18,399.12v8.61s44.92,2.85,71.25-22.62C464.43,385.11,435.65,399.12,393.18,399.12Z"/><path class="cls-14" d="M393.18,399.12v8.61s-44.89,2.85-71.19-22.62C322,385.11,350.74,399.12,393.18,399.12Z"/><path class="cls-14" d="M393.18,420.65v8.76s31.38,0,41.29-14C434.47,415.41,410.22,420.85,393.18,420.65Z"/><path class="cls-14" d="M393.18,420.65v8.76s-31.36,0-41.24-14C351.94,415.41,376.15,420.85,393.18,420.65Z"/><path class="cls-14" d="M453.92,381c5.61,5,8.56,3.48,13.53,17.65,0,0,.61-15.58-9.06-21C453.05,374.64,452.3,379.52,453.92,381Z"/><path class="cls-14" d="M332.45,381c-5.57,5-8.56,3.48-13.49,17.65,0,0-.61-15.58,9-21C333.31,374.64,334.05,379.52,332.45,381Z"/><path class="cls-15" d="M573.9,352.46a52.45,52.45,0,0,0-42-51.38V403.85A52.45,52.45,0,0,0,573.9,352.46Z"/><path class="cls-16" d="M521.47,300A52.88,52.88,0,0,0,511,301.08V403.85a52.92,52.92,0,0,0,20.88,0V301.08A52.81,52.81,0,0,0,521.47,300Z"/><path class="cls-15" d="M205.81,352.46a52.45,52.45,0,0,1,42-51.38V403.85A52.45,52.45,0,0,1,205.81,352.46Z"/><path class="cls-16" d="M258.24,300a53,53,0,0,1,10.45,1.05V403.85a52.92,52.92,0,0,1-20.88,0V301.08A52.71,52.71,0,0,1,258.24,300Z"/><path class="cls-15" d="M417.49,455.06V442.5c104.52,0,121-70,121.69-73l12.29,2.63C551.29,373,532.54,455.06,417.49,455.06Z"/><path class="cls-16" d="M435.27,448.78a15.83,15.83,0,0,1-15.83,15.83H392.23a15.83,15.83,0,0,1-15.83-15.83h0A15.83,15.83,0,0,1,392.23,433h27.21a15.83,15.83,0,0,1,15.83,15.83Z"/><path class="cls-15" d="M228.4,340.25l-.28-45.81c0-92.7,72.55-168.1,161.74-168.1S551.6,201.74,551.6,294.4a174.86,174.86,0,0,1-6,45.37l-12.13-3.26A162.07,162.07,0,0,0,539,294.4c0-85.74-66.92-155.5-149.18-155.5S240.68,208.66,240.68,294.4l.28,45.77Z"/></svg>