<svg id="Layer_1" data-name="Layer 1" xmlns="http://www.w3.org/2000/svg" xmlns:xlink="http://www.w3.org/1999/xlink" viewBox="0 0 500 500"><defs><style>.cls-1{fill:#ebebeb;}.cls-2{fill:#e0e0e0;}.cls-3{fill:#f0f0f0;}.cls-4{opacity:0.05;isolation:isolate;}.cls-5{fill:#f5f5f5;}.cls-6{fill:#fafafa;}.cls-7{fill:#e6e6e6;}.cls-14,.cls-8,.cls-9{fill:none;}.cls-8{stroke:#e0e0e0;}.cls-8,.cls-9{stroke-miterlimit:10;}.cls-14,.cls-9{stroke:#1a2e35;}.cls-10{fill:#1a2e35;}.cls-11{fill-opacity:0.7;opacity:0.2;}.cls-12{fill:#fff;}.cls-13{fill:#5ae4a7;}.cls-13,.cls-15{opacity:0.4;}.cls-14{stroke-linecap:round;stroke-linejoin:round;}.cls-15{fill:#012480;}</style></defs><title>designer</title><g id="freepik--background-complete--inject-150"><rect class="cls-1" y="382.4" width="500" height="0.25"/><rect class="cls-1" x="102.02" y="398.49" width="33.12" height="0.25"/><rect class="cls-1" x="171.14" y="390.92" width="43.55" height="0.25"/><rect class="cls-1" x="52.46" y="389.21" width="48.56" height="0.25"/><rect class="cls-1" x="247.61" y="392.59" width="34.29" height="0.25"/><rect class="cls-1" x="290.8" y="392.59" width="48.57" height="0.25"/><rect class="cls-1" x="326.62" y="396.81" width="93.68" height="0.25"/><path class="cls-1" d="M237,337.8H43.91a5.71,5.71,0,0,1-5.7-5.71V60.66A5.71,5.71,0,0,1,43.91,55H237a5.71,5.71,0,0,1,5.71,5.71h0V332.09A5.71,5.71,0,0,1,237,337.8ZM43.91,55.2a5.46,5.46,0,0,0-5.45,5.46V332.09a5.46,5.46,0,0,0,5.45,5.46H237a5.48,5.48,0,0,0,5.46-5.46V60.66A5.48,5.48,0,0,0,237,55.2Z"/><path class="cls-1" d="M453.31,337.8H260.21a5.73,5.73,0,0,1-5.71-5.71V60.66A5.72,5.72,0,0,1,260.21,55h193.1A5.71,5.71,0,0,1,459,60.66V332.09a5.7,5.7,0,0,1-5.69,5.71ZM260.21,55.2a5.48,5.48,0,0,0-5.46,5.46V332.09a5.48,5.48,0,0,0,5.46,5.46h193.1a5.48,5.48,0,0,0,5.46-5.46V60.66a5.48,5.48,0,0,0-5.46-5.46Z"/><rect class="cls-2" x="122.25" y="154.24" width="97.77" height="228.16"/><rect class="cls-3" x="107.45" y="154.24" width="97.77" height="228.16"/><rect class="cls-2" x="116.93" y="327.95" width="79.55" height="41.3"/><rect class="cls-2" x="116.93" y="273.78" width="79.55" height="41.31"/><rect class="cls-2" x="116.93" y="219.62" width="79.55" height="41.31"/><rect class="cls-2" x="116.93" y="165.46" width="79.55" height="41.31"/><rect class="cls-4" x="116.93" y="165.46" width="16.62" height="41.31"/><rect class="cls-4" x="116.93" y="219.62" width="16.62" height="41.31"/><rect class="cls-4" x="116.93" y="273.78" width="16.62" height="41.31"/><rect class="cls-4" x="116.93" y="327.95" width="16.62" height="41.3"/><rect class="cls-2" x="60" y="78.77" width="69.85" height="69.85"/><rect class="cls-1" x="56.34" y="78.77" width="69.85" height="69.85"/><rect class="cls-5" x="64.38" y="86.81" width="53.78" height="53.78"/><rect class="cls-2" x="64.38" y="86.81" width="1.78" height="53.78"/><circle class="cls-6" cx="91.96" cy="113.68" r="10.66"/><path class="cls-5" d="M56.16,365.49s-5.51-4.75-9.32-15.62S34.2,326.54,34.2,326.54,45.75,332,49.82,342.39c0,0-5-21.06-15.62-28.76,0,0,19,6.12,23.77,25.93,0,0,3.17-15.73-2-31.36,0,0,9.73,12.23,10.87,27.4,0,0,1.35-26.27,10-34,0,0-2.72,23.78,0,35.78,0,0,3.85-21.06,21.06-24,0,0-11.1,13.36-10.64,25.13a26,26,0,0,1,21.06-14.71S96,332.43,94.89,346.47s-1.14,18.34-8.61,20.38S56.16,365.49,56.16,365.49Z"/><path class="cls-7" d="M44.21,352.64V380s3.52,9.8,26.13,11.06,27.89-10.81,27.89-10.81V352.64Z"/><rect class="cls-2" x="303.95" y="275.28" width="141.65" height="107.95"/><rect class="cls-1" x="268.68" y="275.28" width="141.65" height="107.95"/><rect class="cls-8" x="273.74" y="285.27" width="129.54" height="39.99"/><rect class="cls-8" x="273.74" y="331.92" width="129.54" height="39.99"/><circle class="cls-2" cx="338.51" cy="305.26" r="3.63"/><circle class="cls-2" cx="338.51" cy="354.96" r="3.63"/><rect class="cls-2" x="262.44" y="269.52" width="188.43" height="5.76"/><rect class="cls-4" x="415.68" y="269.52" width="35.19" height="5.76"/><rect class="cls-2" x="291.95" y="108.52" width="156.88" height="88.7"/><rect class="cls-3" x="287.85" y="108.52" width="156.88" height="88.7"/><rect class="cls-5" x="293.97" y="115.22" width="144.16" height="75.73"/><rect class="cls-2" x="293.97" y="115.22" width="1.57" height="75.73"/><rect class="cls-6" x="410.61" y="133.5" width="15.91" height="19.47" transform="translate(137.34 484.74) rotate(-69.42)"/><circle class="cls-7" cx="413.62" cy="135.41" r="0.69"/><polygon class="cls-6" points="342.8 158.73 381.58 162.63 379.21 178.05 341.87 173.58 342.8 158.73"/><path class="cls-7" d="M379.55,165.46a.69.69,0,1,1-.69-.69.69.69,0,0,1,.69.69Z"/><polygon class="cls-1" points="364 269.52 372.57 225.72 412.7 225.72 404.36 269.52 364 269.52"/><polygon class="cls-6" points="370.11 264.03 376.53 231.21 406.6 231.21 400.35 264.03 370.11 264.03"/><polygon class="cls-7" points="378.08 231.21 371.86 264.03 370.11 264.03 376.53 231.21 378.08 231.21"/><polygon class="cls-7" points="412.7 225.72 414.36 225.72 406.6 269.52 404.36 269.52 412.7 225.72"/><polygon class="cls-2" points="411.52 241.7 417.21 269.52 406.6 269.52 411.52 241.7"/></g><rect class="cls-9" x="83.34" y="141.42" width="56.97" height="36.43" rx="3.51" transform="matrix(0.96, 0.29, -0.29, 0.96, 51.1, -25.57)"/><line class="cls-9" x1="87.38" y1="142.07" x2="141.9" y2="158.59"/><line class="cls-9" x1="85.72" y1="147.54" x2="140.24" y2="164.06"/><path class="cls-9" d="M123.66,174.29a3.52,3.52,0,0,0,.3,2.78,3.55,3.55,0,1,1,1.5-4.92A3.56,3.56,0,0,0,123.66,174.29Z"/><path class="cls-9" d="M130.45,176.35a3.55,3.55,0,1,1-2.37-4.43A3.55,3.55,0,0,1,130.45,176.35Z"/><rect class="cls-9" x="418.8" y="211.31" width="48.45" height="30.98" rx="3.51" transform="translate(84.81 -118.73) rotate(16.86)"/><line class="cls-9" x1="422.24" y1="211.85" x2="468.61" y2="225.9"/><line class="cls-9" x1="420.83" y1="216.51" x2="467.2" y2="230.56"/><path class="cls-9" d="M453.1,239.26a3,3,0,0,0,.26,2.36,3,3,0,1,1-.49-5.58,3,3,0,0,1,1.75,1.4A3,3,0,0,0,453.1,239.26Z"/><path class="cls-9" d="M458.87,241a3,3,0,1,1-2-3.77A3,3,0,0,1,458.87,241Z"/><rect class="cls-9" x="350" y="120.18" width="63.66" height="33.12" transform="translate(-22.27 171.38) rotate(-24.6)"/><path class="cls-9" d="M412.69,134.18l-8.76-19.13a3.4,3.4,0,0,1-4.5-1.67L352.65,134.8a3.39,3.39,0,0,1-1.68,4.5l8.76,19.13a3.39,3.39,0,0,1,4.5,1.68L411,138.68A3.4,3.4,0,0,1,412.69,134.18Z"/><circle class="cls-9" cx="381.83" cy="136.74" r="8.7" transform="translate(-4.27 260.92) rotate(-37.53)"/><path class="cls-10" d="M384.2,141l.65,1.42-.62.28-.65-1.41a5.06,5.06,0,0,1-3.47.23l0-.87a4.57,4.57,0,0,0,3.07-.15l-1.49-3.25c-1.51.29-3.09.51-3.83-1.13-.55-1.18-.16-2.6,1.66-3.61l-.65-1.43.62-.28.64,1.41a5.29,5.29,0,0,1,2.86-.38l0,.87a5,5,0,0,0-2.53.29l1.5,3.28c1.55-.31,3.2-.59,4,1.07C386.54,138.51,386.11,140,384.2,141Zm-2.86-4.61-1.42-3.09c-1.22.69-1.49,1.61-1.13,2.39C379.22,136.6,380.2,136.56,381.34,136.36Zm3.77,1.41c-.45-1-1.5-.9-2.69-.67l1.42,3.09C385.15,139.47,385.47,138.56,385.11,137.77Z"/><rect class="cls-9" x="39.79" y="246.94" width="44.51" height="23.15" transform="matrix(1, -0.09, 0.09, 1, -22.04, 6.3)"/><path class="cls-9" d="M83,264.09l-1.27-14.65a2.39,2.39,0,0,1-2.57-2.16l-35.84,3.1A2.37,2.37,0,0,1,41.12,253l1.27,14.65A2.37,2.37,0,0,1,45,269.76l35.84-3.1A2.38,2.38,0,0,1,83,264.09Z"/><path class="cls-9" d="M68.1,258a6.08,6.08,0,1,1-6.58-5.53A6.09,6.09,0,0,1,68.1,258Z"/><path class="cls-10" d="M62.6,261.86l.1,1.09-.48,0-.09-1.08a3.62,3.62,0,0,1-2.34-.67l.23-.56a3.24,3.24,0,0,0,2.06.62l-.22-2.49c-1.06-.16-2.15-.39-2.26-1.64-.08-.91.51-1.76,1.95-2l-.1-1.08.48-.05.09,1.08a3.72,3.72,0,0,1,2,.43l-.19.57a3.56,3.56,0,0,0-1.73-.4l.22,2.51c1.09.16,2.24.37,2.35,1.64C64.72,260.79,64.1,261.64,62.6,261.86Zm-.8-3.71-.2-2.37c-1,.17-1.36.71-1.31,1.31S61,258,61.8,258.15ZM64,260c-.06-.75-.77-1-1.61-1.08l.21,2.37C63.58,261.09,64,260.57,64,260Z"/><circle class="cls-9" cx="444.54" cy="113.24" r="8.7"/><path class="cls-10" d="M444.92,118.07v1.56h-.68v-1.55a5.13,5.13,0,0,1-3.25-1.24l.4-.77a4.63,4.63,0,0,0,2.85,1.14v-3.57c-1.49-.37-3-.83-3-2.63,0-1.3.93-2.43,3-2.59v-1.57h.68v1.55a5.27,5.27,0,0,1,2.76.85l-.34.8a5,5,0,0,0-2.42-.79v3.6c1.54.37,3.16.8,3.16,2.63C448.08,116.8,447.08,118,444.92,118.07Zm-.68-5.39v-3.39c-1.4.12-2,.84-2,1.7C442.22,112,443.13,112.4,444.24,112.68Zm2.84,2.86c0-1.07-1-1.44-2.16-1.73v3.4C446.42,117.1,447.08,116.41,447.08,115.54Z"/><circle class="cls-9" cx="385.25" cy="221.15" r="8.7" transform="translate(-40.46 94.27) rotate(-13.26)"/><path class="cls-10" d="M383.05,225.47l-.82,1.33-.58-.36.81-1.32a5.15,5.15,0,0,1-2.12-2.76l.74-.45a4.69,4.69,0,0,0,1.84,2.47l1.87-3c-1.08-1.09-2.14-2.28-1.2-3.81.69-1.11,2.08-1.58,3.94-.63l.81-1.34.58.36-.81,1.32a5.35,5.35,0,0,1,1.91,2.16l-.71.51a5,5,0,0,0-1.65-1.94L385.78,221c1.11,1.12,2.26,2.33,1.31,3.89C386.4,226,385,226.49,383.05,225.47Zm2.24-4.95,1.78-2.89c-1.26-.63-2.17-.35-2.62.38C383.91,218.89,384.49,219.7,385.29,220.52Zm.93,3.92c.56-.91-.1-1.74-.94-2.6l-1.78,2.9C384.83,225.43,385.76,225.18,386.22,224.44Z"/><path class="cls-9" d="M260.39,53.22a8.7,8.7,0,1,1-11.53-4.3A8.7,8.7,0,0,1,260.39,53.22Z"/><path class="cls-10" d="M254.83,61.06l.65,1.42-.62.29-.64-1.41a5.11,5.11,0,0,1-3.47.22l0-.87a4.65,4.65,0,0,0,3.08-.14l-1.49-3.26c-1.51.29-3.09.5-3.84-1.13-.54-1.19-.15-2.6,1.67-3.61l-.65-1.43.62-.28.64,1.41a5.29,5.29,0,0,1,2.86-.38l0,.87a5,5,0,0,0-2.53.29l1.5,3.28c1.55-.31,3.2-.58,4,1.07C257.17,58.6,256.75,60.05,254.83,61.06ZM252,56.45l-1.41-3.09c-1.22.69-1.49,1.61-1.13,2.38C249.86,56.68,250.84,56.65,252,56.45Zm3.78,1.41c-.45-1-1.51-.89-2.69-.67l1.41,3.09C255.79,59.56,256.11,58.66,255.75,57.86Z"/><path class="cls-9" d="M231.08,405.56a13.07,13.07,0,1,1-17.31-6.46A13.07,13.07,0,0,1,231.08,405.56Z"/><path class="cls-10" d="M222.74,417.34l1,2.14-.92.42-1-2.12a7.67,7.67,0,0,1-5.21.34l0-1.3a7,7,0,0,0,4.62-.23L219,411.71c-2.27.43-4.64.75-5.76-1.7-.81-1.78-.23-3.91,2.51-5.43l-1-2.14.93-.42,1,2.12a8,8,0,0,1,4.29-.57l0,1.3a7.57,7.57,0,0,0-3.8.44l2.25,4.92c2.33-.46,4.81-.87,5.94,1.61C226.26,413.65,225.61,415.82,222.74,417.34Zm-4.29-6.93-2.12-4.64c-1.84,1-2.24,2.41-1.71,3.58C215.27,410.77,216.75,410.72,218.45,410.41Zm5.66,2.13c-.67-1.47-2.25-1.35-4-1l2.12,4.64C224.18,415.09,224.66,413.73,224.11,412.54Z"/><path class="cls-9" d="M43.86,202.46A13.07,13.07,0,1,1,45.05,184,13.06,13.06,0,0,1,43.86,202.46Z"/><path class="cls-10" d="M30.17,197.86l-1.76,1.55-.67-.77,1.74-1.53a7.68,7.68,0,0,1-1.82-4.9l1.26-.32a6.93,6.93,0,0,0,1.55,4.35l4-3.54c-1.07-2-2.06-4.23,0-6,1.47-1.29,3.67-1.35,5.92.83L42.15,186l.68.77-1.75,1.54a8,8,0,0,1,1.78,3.95l-1.24.41a7.47,7.47,0,0,0-1.51-3.51l-4.06,3.57c1.11,2.09,2.22,4.35.16,6.16C34.73,200.16,32.45,200.18,30.17,197.86Zm5.4-6.1,3.84-3.37c-1.53-1.46-3-1.45-3.93-.6C34.32,188.81,34.79,190.21,35.57,191.76Zm-.4,6c1.21-1.06.64-2.55-.2-4.15L31.14,197C32.74,198.59,34.19,198.65,35.17,197.79Z"/><circle class="cls-9" cx="96.77" cy="312.4" r="6.31" transform="translate(-218.87 398) rotate(-87.96)"/><path class="cls-10" d="M99.22,314.91l.73.87-.38.31-.72-.86a3.69,3.69,0,0,1-2.38.82l-.14-.62a3.33,3.33,0,0,0,2.12-.69l-1.66-2c-1,.49-2.07.94-2.9-.06-.61-.73-.61-1.79.47-2.85l-.72-.87.38-.31.72.86a3.79,3.79,0,0,1,1.93-.81l.18.6a3.83,3.83,0,0,0-1.72.69l1.68,2c1-.51,2.13-1,3,0C100.39,312.74,100.37,313.84,99.22,314.91Zm-2.87-2.69-1.58-1.89c-.72.72-.74,1.41-.34,1.89S95.59,312.58,96.35,312.22Zm2.9.27c-.49-.59-1.22-.34-2,.05l1.58,1.89C99.61,313.67,99.66,313,99.25,312.49Z"/><path class="cls-9" d="M297.79,438.4a6.31,6.31,0,1,1-8.89-.81A6.31,6.31,0,0,1,297.79,438.4Z"/><path class="cls-10" d="M295.4,445l.72.87-.38.31-.71-.86a3.72,3.72,0,0,1-2.39.82l-.14-.62a3.37,3.37,0,0,0,2.12-.68l-1.66-2c-1,.49-2.06.94-2.9-.06-.6-.73-.6-1.79.48-2.85l-.73-.87.38-.31.72.86a3.83,3.83,0,0,1,1.93-.81l.18.6a3.79,3.79,0,0,0-1.71.69l1.67,2c1-.51,2.13-1,3,0C296.57,442.78,296.54,443.88,295.4,445Zm-2.88-2.69-1.58-1.89c-.72.72-.74,1.41-.34,1.89S291.77,442.62,292.52,442.26Zm2.91.27c-.5-.59-1.22-.34-2,.05l1.58,1.89C295.78,443.71,295.83,443,295.43,442.53Z"/><circle class="cls-9" cx="118.81" cy="78.34" r="6.31" transform="translate(29.95 189.5) rotate(-84.76)"/><path class="cls-10" d="M121.27,80.85l.73.87-.38.31-.72-.86a3.72,3.72,0,0,1-2.39.82l-.14-.62a3.29,3.29,0,0,0,2.12-.69l-1.65-2c-1,.49-2.07.94-2.9-.06-.61-.73-.61-1.79.47-2.85l-.72-.87.38-.31.71.86a3.87,3.87,0,0,1,1.93-.81l.19.6a3.79,3.79,0,0,0-1.72.69l1.67,2c1-.51,2.13-1,3,0C122.44,78.68,122.42,79.78,121.27,80.85Zm-2.88-2.69-1.57-1.89c-.73.72-.74,1.41-.34,1.89S117.64,78.52,118.39,78.16Zm2.91.27c-.5-.59-1.22-.34-2,0l1.57,1.89C121.66,79.61,121.71,78.92,121.3,78.43Z"/><path class="cls-11" d="M261,337s-7.7,39.13-55,48c0,0-12.35,9.85-16.46,15.68s-26,15.74-48.31,46.66-55.5-67.27-55.5-67.27l73.38-95.3Z"/><path class="cls-12" d="M303.05,153.31s25.5-12.47,31.11-10.32,11,15-10.46,27.4-15,35.36-15,35.36H324s9.18,3.74,12.75,8.55,6.12,21.21,8.16,26.77,1,11.13-4.59,12.94c0,0-3.57,15.56-2.55,22.46s.51,11.34-6.12,12.18a11.57,11.57,0,0,1-12.75-12.18L313.76,295l3.57,7.1a46.16,46.16,0,0,1,13.77,8.34c7.14,6.12,14.28,7.79,12.24,14.61s-6.12,14.17-27.54,5.65-39.27-42-39.27-42L263.66,171.91Z"/><path class="cls-13" d="M329.89,220.37c-11.56,15.76,1.22,33.91,1.22,33.91s-8,4.46-8.22,15.84c-.09,4.73,1.1,11.34,2.52,17.46a11.47,11.47,0,0,1-6.55-11.11l-5.11,18.47,3.58,7.1a43.39,43.39,0,0,1,10.51,5.79c-3.17,7.28-4.13,16.28-3.85,25.56a67.66,67.66,0,0,1-8.19-2.74c-21.43-8.53-39.27-42-39.27-42L263.66,171.9,303,153.31s13.94-6.81,23.48-9.5c-.74,8.92,1,18.15,2.26,23.29a53.8,53.8,0,0,1-5.07,3.29c-21.43,12.35-15.06,35.36-15.06,35.36H324s8.73,3.56,12.46,8.19A25,25,0,0,0,329.89,220.37Z"/><path class="cls-12" d="M263.16,318.2s-27.74,54.39-77.75,66.73c0,0-1.91,10.76-10.37,15.38-4.52,2.46-22.75,29.79-38.77,54.74L47.64,400.68c5.47-5.4,11.69-11.62,18-18.11,18.5-18.86,38.23-40.05,44.28-50.46,5.39-9.3,12.22-25.44,18.18-40.61,7.61-19.4,13.81-37.22,13.81-37.22l29.56-32.86L218,169.75l2,6.61Z"/><path class="cls-13" d="M218,169.75,263.16,318.2s-27.74,54.39-77.75,66.73c0,0-1.91,10.76-10.37,15.38-4,2.21-19.16,24.46-33.79,47,5.42-18.6,21.12-48.25,21.12-48.25-10.07-11.93-7.14-24.5-3.11-20.92s14.16,13.64,14.81,14.27c-4.46-5.24-5.48-13.45-5.48-13.45s12.48,8.3,13.49-5-7.49-45.79-7.49-45.79l-22.24-85.43Z"/><path class="cls-14" d="M263.66,171.91l39.39-18.6s25.5-12.47,31.11-10.32,11,15-10.46,27.4-15,35.36-15,35.36H324s9.18,3.74,12.75,8.55,6.12,21.21,8.16,26.77,1,11.13-4.59,12.94c0,0-3.57,15.56-2.55,22.46s.51,11.34-6.12,12.18a11.57,11.57,0,0,1-12.75-12.18L313.76,295l3.57,7.1a46.16,46.16,0,0,1,13.77,8.34c7.14,6.12,14.28,7.79,12.24,14.61s-6.12,14.17-27.54,5.65-39.27-42-39.27-42"/><path class="cls-14" d="M340.28,254c-7.65,2.07-16.58.54-19.89-13s3.31-27.95,7.65-29.33"/><path class="cls-14" d="M318.86,276.47s-.51-17.41,5.86-21.71"/><path class="cls-13" d="M132.83,362.94s-18.69-2.33-22.86-10.69c-3.46-6.92-22.16,19-44.28,30.32,18.5-18.86,38.23-40.05,44.28-50.46,5.39-9.3,12.22-25.44,18.18-40.61v0c-.3,12.58-7,31.84-5.09,41.87a8.07,8.07,0,0,0-5.76,9.74C118.74,351.08,132.83,362.94,132.83,362.94Z"/><path class="cls-14" d="M263.16,318.2s-27.74,54.39-77.75,66.73c0,0-1.91,10.76-10.37,15.38-4.51,2.46-22.75,29.79-38.77,54.74"/><path class="cls-14" d="M47.64,400.68C69,379.57,101.84,346.1,110,332.11c12.31-21.17,32-77.84,32-77.84l76-84.52"/><path class="cls-14" d="M174.6,234.3s11.67,10.46,15,20"/><image width="5000" height="3750" transform="translate(-93.12 -62.02) scale(0.14)" xlink:href="../../../../UI%20Direct%20pay/Mockup.png"/><path class="cls-12" d="M186.89,302.47c1.5,23-9.18,48.72-9.18,48.72L120,335,110,332.11c10-13.89,14.76-41.25,12.15-63.39-.2-1.67-.33-3.24-.41-4.74-.95-18.26,6.58-23.6,13-31.67,6.95-8.74,22.58-41.74,22.58-49.55s19.54-26.93,15.2-48.63c0,0,5.9-3.67,11.85-.66,2.69,1.36,5.39,4.09,7.55,9.15,5.09,11.89-2,45.5-8.13,53.74l-11.71,48.48s3.94,6.81,7.83,19.17A165,165,0,0,1,186.89,302.47Z"/><path class="cls-13" d="M121.71,264c3.26,8.95,6.74,15,6.44,27.54s-7,31.84-5.09,41.87a8.83,8.83,0,0,0-3,1.56L110,332.11c10-13.89,14.76-41.25,12.15-63.39C121.92,267.05,121.79,265.48,121.71,264Z"/><path class="cls-15" d="M183.76,196.36l-11.71,48.48s3.94,6.81,7.83,19.17l0,0c-7.92-12.78-14.62-16.57-14.62-16.57,5.28-6.33,9.35-52.63,9.35-52.63s16.56-19.45,15-39.8a65.22,65.22,0,0,0-5.22-21.51c2.69,1.36,5.39,4.09,7.55,9.15C197,154.51,189.84,188.12,183.76,196.36Z"/><path class="cls-14" d="M110,332.11c10-13.89,14.77-41.25,12.16-63.39s5.64-27.68,12.59-36.42,22.58-41.73,22.58-49.55,19.54-26.91,15.19-48.62c0,0,12.48-7.73,19.41,8.49,5.09,11.9-2,45.5-8.13,53.75l-11.71,48.47s12.5,21.55,14.84,57.63c1.5,23-9.18,48.72-9.18,48.72"/><path class="cls-14" d="M148.53,369.64s13.13,8.08,20.79,20.86"/><path class="cls-14" d="M185.41,384.93s-11.31,1.61-21.53-10.62c-6.56-7.83-26.44-11.37-31-31.85"/><path class="cls-11" d="M349.78,445.49c-28.95-13.85-11.41-24.95-51.24-42.14s-40.24-31.88-35.43-65.66,1-69.71,12.58-72.76-9.07-49.64,4.44-66.11l66.44,129.24Z"/><path class="cls-12" d="M457.66,444.14c-1.37-3.89-2.75-8.14-3.81-12-1.38-5-2.47-9-5-13.65-.4-.74-.84-1.52-1.32-2.36-2.71-4.83-6.42-11.44-8.59-19.56-1.45-5.47,0-18.94,1.36-32,1-9.38,1.91-18.23,1.65-23.25l-.08-1.78c-.68-13.13-2.1-40.45-5.05-48-2.84-7.28-5.51-8.37-10.36-10.31l-1.57-.66c-1.82-.76-4.92-2.36-8.49-4.21-8.06-4.17-18.07-9.36-23.16-10.05A45.46,45.46,0,0,0,379,267c-6.27-4.81-16.94-11-20.11-11.13-2.61-.13-8.28,1.5-11,2.35l-1.37.44a41.21,41.21,0,0,0-5.45-3.58l-.38-.17c-3.52-1.45-8.86-1.51-11.77-1.42-.88,0-1.56.09-1.88.11-5.48-8.44-10.89-16.85-13.23-20.54-4.9-7.76-20.07-39.69-20.23-40a.27.27,0,0,0-.2-.16.37.37,0,0,0-.14-.05c-1.18-.35-9.87-2.55-13.36,5.87-3.82,9.17,1.64,29.3,7,36.61,2.56,3.52,9.54,17.88,16.64,32.74-1.83,1.69-16.38,15.14-23.45,17.65-5.79,2.05-4.44,31.73-3.35,55.56.41,8.8.76,16.37.66,20.92-.2,8.8,15.8,20.92,31.32,32.64,14,10.62,28.52,21.59,30.22,29.56.48,2.24,1.81,4.06,3.41,6.11,2.68,3.4,6.11,7.41,7.58,15,.42,2.28,4.09,5.26,7,10.13H461.89C461,453.34,459.36,449,457.66,444.14ZM312,286c5.09,10.66,8.23,17,9,17.71s.72,4.09.69,7.38a60.85,60.85,0,0,0,.3,8.63c-1.24,1.09-9.06,8.22-10.64,14l-6.66-7.83L303,301.34C304,300.3,310.83,293.07,312,286Z"/><path class="cls-15" d="M427.51,354.54c2.47,23,2.51,35.55,5.28,42.22,4.67,11.26,11.56,13.54,11.56,13.54a70.08,70.08,0,0,1-5.42-13.71c-1.45-5.47,0-18.94,1.36-32,1-9.38,1.92-18.24,1.65-23.26l-.09-1.78c-.68-13.12-2.09-40.44-5-48-2.84-7.28-5.51-8.37-10.36-10.32-.5-.21-1-.41-1.57-.65-1.82-.76-4.92-2.36-8.49-4.21-8.06-4.17-18.08-9.36-23.16-10.05A45,45,0,0,0,379,267c-6.28-4.81-16.95-11-20.12-11.14-2.61-.12-9.65,1.93-12.4,2.8,12,9.79,29.29,22,29.29,22,13.67,2.72,11.91,8.65,17.44,12,5,3,9.79-5.78,14-6.55,5.51-1,11.78,4.82,11.5,11.88C417.87,317.47,425.4,334.75,427.51,354.54Z"/><path class="cls-15" d="M358.42,283.11s-10.84-9-16-12-6-13.34-1.91-15.85a1.09,1.09,0,0,1,.5-.16l-.37-.17c-3.53-1.45-8.86-1.51-11.77-1.42,6.05,11.17,10.79,19.74,12.09,21.62C345.29,281.41,358.42,283.11,358.42,283.11Z"/><path class="cls-15" d="M342,423.07c.45-2.39-3.49-9.39-5.21-12.23-3.94-6.48-49.57-46.8-42.95-57.56s12.64-2.8,16.82-2.1c3,.5,11.25-4.41,11.2-4.82-.93-8.29,6.72-13.68,6.72-13.68s-.71-33-2.46-32.44-22.83-49.55-22.83-49.55-22.25-29.6-21-43.41,10.9-14.1,10.9-14.1l0-.37c-1.18-.35-9.87-2.55-13.36,5.87-3.82,9.17,1.64,29.3,7,36.61,2.56,3.52,9.54,17.88,16.64,32.74-1.83,1.69-16.38,15.14-23.45,17.65-5.79,2.05-4.44,31.73-3.35,55.56.41,8.8.76,16.37.66,20.92-.2,8.8,15.8,20.92,31.32,32.64,14,10.62,28.52,21.59,30.22,29.56.48,2.24,1.81,4.06,3.41,6.11A39.46,39.46,0,0,1,342,423.07ZM312,286c5.09,10.66,8.23,17,9,17.71s.72,4.09.69,7.38a60.85,60.85,0,0,0,.3,8.63c-1.24,1.09-9.06,8.22-10.64,14l-6.66-7.83L303,301.34C304,300.3,310.83,293.07,312,286Z"/><path class="cls-14" d="M352.17,283a22.79,22.79,0,0,1-11.25-7.88c-4.56-6.12-22.51-34-27.49-41.86s-20.25-40.05-20.25-40.05-9.4-3.15-13.05,5.63,1.35,28.62,6.91,36.26,32.06,66.51,34.17,68.41-1,17.6,3.16,21.4"/><path class="cls-14" d="M322.35,319.9s-9.7,8.45-10.84,14.62l-7.2-8.47-1.7-24.84s8.68-8.7,9.16-16.44"/><path class="cls-14" d="M303.84,268.11s-16.11,15.2-23.77,17.91-2.08,59.66-2.46,76.15,58,45.22,61.54,62.1c1.42,6.72,7.29,8.09,10.89,21"/><path class="cls-14" d="M326.77,254s8.76-.79,13.71,1.27,25,19.29,29.83,22.58,12.12,4.54,13.51,8.09"/><path class="cls-14" d="M346.38,259s9-3,12.43-2.83,16.38,7.8,22.18,12.9a49.34,49.34,0,0,0,15.12,9.18"/><path class="cls-14" d="M378.88,267.38a44,44,0,0,1,14.31-.69c7.32,1,25.7,11.8,31.55,14.24s8.67,2.89,11.74,10.77,4.49,37.84,5.11,49.68-5.54,45.75-3,55.29,7.15,16.9,9.94,22"/><path class="cls-14" d="M302.61,301.21s-1.46-5.83-3.38-6.58"/><path class="cls-14" d="M304.31,326.05A74.52,74.52,0,0,0,307,336.1c1.43,3.55-.8,8.69-.8,8.69"/><path class="cls-14" d="M311.51,334.52c-.24,5.68,5.42,12.32,6.79,11.38"/><path class="cls-14" d="M340.28,301.21s6.06-9.82,11.89-10.3,12.53,7.78,16.13,7,8.11-6.06,14.14-7,8.87,1.94,13.67,2.18,5.27-6.16,11-7,7.67,2,11.5,2.74,4.8-2.29,7.92-4"/></svg>