<svg id="Capa_1" data-name="Capa 1" xmlns="http://www.w3.org/2000/svg" viewBox="0 0 512 512"><defs><style>.cls-1{fill:#f8c8a6;}.cls-2{fill:#414042;stroke:#414042;stroke-miterlimit:10;stroke-width:1.42px;}.cls-3{fill:#fff;}.cls-4{fill:#fbe2ca;}.cls-5{fill:#fce0c6;}.cls-6{fill:#f67e6c;}.cls-7{fill:#1c75bb;}</style></defs><title>development</title><path class="cls-1" d="M142.63,297.23a302.46,302.46,0,0,1-15.71-32.41c-3.46-8.76-13.36-20.87-22-26.91s-11.19-16.67-5.66-23.62,10.06-16.84,10.06-22A9.41,9.41,0,0,0,99.89,183c-5.19,0-16.63,8.18-25.42,18.19L52.39,226.3c-8.8,10-16,21.41-16,25.34s3.16,17.09,7,29.25l21.18,66.75c3.86,12.15,3.72,32-.3,44.14l-6.75,20.38a19.12,19.12,0,0,0-.82,3.47L13.23,512H98.41l21.13-94.08-1-.09a24.68,24.68,0,0,0,2.71-5.78l7.62-24.56c3.78-12.18,10.55-25.6,15-29.83s8.17-15.85,8.17-25.82S147.82,306.3,142.63,297.23Z"/><rect class="cls-2" x="85.75" y="61.95" width="376.83" height="294.43" rx="22.94"/><rect class="cls-3" x="116.51" y="91.43" width="315.31" height="233.27"/><path class="cls-1" d="M63.84,298.32c-7.45-4.61-6.22-15.66,2.72-24.56l1.1-1.09c9-8.9,23.39-23.65,32.1-32.78l12.51-13.11c8.7-9.13,19.38-12.94,23.72-8.48s4.29,13.95-.13,21.09a99.82,99.82,0,0,1-20.28,22.33c-6.74,5.15-14,14.08-16.17,19.86s-8,13.79-13,17.81S71.29,302.93,63.84,298.32Z"/><path class="cls-4" d="M128.09,220.23s6.54,5.57,4.86,9.28c0,0-3.88,5.4-7.75,4.81l-6.59-10.14S126,218.17,128.09,220.23Z"/><path class="cls-5" d="M116.51,359.56s-33.36,7.65-35.91-27.4C80.6,332.16,74.69,372.94,116.51,359.56Z"/><path class="cls-4" d="M48.1,235.74s-16.57,12.52-3.18,41.09C45.61,279,37.85,247.43,48.1,235.74Z"/><rect class="cls-6" x="202.04" y="240.27" width="141.21" height="36.32" rx="11.47"/><path class="cls-3" d="M220.3,251.87h2.15v7a16.1,16.1,0,0,0,.08,2.14,2.16,2.16,0,0,0,.68,1.33,2.07,2.07,0,0,0,1.41.47,2,2,0,0,0,1.22-.34,1.67,1.67,0,0,0,.65-.92,11.76,11.76,0,0,0,.17-2.53v-7.19h2.14v6.83a17.8,17.8,0,0,1-.28,3.78,3.2,3.2,0,0,1-1.25,1.89,4.29,4.29,0,0,1-2.59.72,4.79,4.79,0,0,1-2.6-.6,3.38,3.38,0,0,1-1.36-1.68,12.8,12.8,0,0,1-.42-4Z"/><path class="cls-3" d="M231.07,264.87v-13h3.45a11,11,0,0,1,2.53.18,2.91,2.91,0,0,1,1.57,1.29,5.56,5.56,0,0,1,.08,4.9,3.07,3.07,0,0,1-1.33,1.34,6.88,6.88,0,0,1-2.75.38h-1.41v4.91Zm2.14-10.8v3.69h1.19a5.31,5.31,0,0,0,1.63-.16,1.49,1.49,0,0,0,.71-.61,2.06,2.06,0,0,0,.28-1.08,2,2,0,0,0-.29-1.1,1.41,1.41,0,0,0-.7-.59,6.49,6.49,0,0,0-1.77-.15Z"/><path class="cls-3" d="M241.06,264.87V252h2.15v10.7h5.35v2.2Z"/><path class="cls-3" d="M249.66,258.45a9.21,9.21,0,0,1,.69-3.83,5.19,5.19,0,0,1,1.79-2.24,4.77,4.77,0,0,1,2.69-.73,4.61,4.61,0,0,1,3.73,1.74,7.66,7.66,0,0,1,1.44,5,7.76,7.76,0,0,1-1.53,5.1,4.45,4.45,0,0,1-3.63,1.62,4.5,4.5,0,0,1-3.65-1.61A7.61,7.61,0,0,1,249.66,258.45Zm2.22-.09a5.49,5.49,0,0,0,.85,3.36,2.57,2.57,0,0,0,2.11,1.13,2.53,2.53,0,0,0,2.11-1.12,5.73,5.73,0,0,0,.83-3.41A5.6,5.6,0,0,0,257,255a2.54,2.54,0,0,0-2.13-1.08A2.56,2.56,0,0,0,252.7,255,5.61,5.61,0,0,0,251.88,258.36Z"/><path class="cls-3" d="M271.3,264.87H269l-.93-2.95h-4.27l-.88,2.95H260.6l4.15-13H267Zm-3.95-5.15-1.48-4.82-1.44,4.82Z"/><path class="cls-3" d="M272.42,251.87h3.93a5.84,5.84,0,0,1,2.24.33,3.81,3.81,0,0,1,1.4,1.12,5.86,5.86,0,0,1,1,2.05,11.56,11.56,0,0,1,.36,3.13,10.21,10.21,0,0,1-.38,2.93,5.57,5.57,0,0,1-1,2,3.68,3.68,0,0,1-1.41,1.1,5.19,5.19,0,0,1-2.13.37h-4Zm2.15,2.2v8.6h1.61a4.26,4.26,0,0,0,1.51-.2,1.77,1.77,0,0,0,.76-.59,3.27,3.27,0,0,0,.49-1.24,10.42,10.42,0,0,0,.19-2.24,10.58,10.58,0,0,0-.19-2.28,3,3,0,0,0-.63-1.31,2,2,0,0,0-1-.63,9.16,9.16,0,0,0-1.75-.11Z"/><path class="cls-3" d="M287.31,251.87h3.93a5.84,5.84,0,0,1,2.24.33,3.81,3.81,0,0,1,1.4,1.12,6,6,0,0,1,1,2.05,11.56,11.56,0,0,1,.36,3.13,10.21,10.21,0,0,1-.38,2.93,5.75,5.75,0,0,1-1,2,3.76,3.76,0,0,1-1.41,1.1,5.19,5.19,0,0,1-2.13.37h-4Zm2.15,2.2v8.6h1.61a4.16,4.16,0,0,0,1.5-.2,1.8,1.8,0,0,0,.77-.59,3.45,3.45,0,0,0,.49-1.24,10.42,10.42,0,0,0,.19-2.24,9.88,9.88,0,0,0-.2-2.28,3,3,0,0,0-.62-1.31,2,2,0,0,0-1-.63,9.16,9.16,0,0,0-1.75-.11Z"/><path class="cls-3" d="M307.69,264.87h-2.33l-.94-2.95h-4.27l-.88,2.95H297l4.15-13h2.28Zm-4-5.15-1.47-4.82-1.45,4.82Z"/><path class="cls-3" d="M310.13,264.87v-10.8H307v-2.2h8.47v2.2h-3.16v10.8Z"/><path class="cls-3" d="M325.35,264.87H323l-.93-2.95h-4.27l-.88,2.95h-2.29l4.15-13h2.28Zm-4-5.15-1.47-4.82-1.44,4.82Z"/><path class="cls-1" d="M354,389.8a17,17,0,0,1-1-5.42,32.35,32.35,0,0,0-1-6.81,12.43,12.43,0,0,0-3.1-5.49,10.83,10.83,0,0,0-4.27-2.15,15.91,15.91,0,0,0-3.68-.18c-.86.1-1.55-.79-1.55-2v-5a25.75,25.75,0,0,0-1-6.09,17.06,17.06,0,0,0-3.11-5.55,10.64,10.64,0,0,0-4.65-2.87,8.32,8.32,0,0,0-4.85.72,24.35,24.35,0,0,0-4.07,2.86c-1,.89-1.4.09-1-1.79a34.13,34.13,0,0,0,.77-6.08,23.07,23.07,0,0,0-1.16-6.09,9.94,9.94,0,0,0-5.24-5,16.86,16.86,0,0,0-7.37-1.08c-1.81.3-4.78,2.39-6.59,4.66a29.53,29.53,0,0,0-4.66,9.67c-.74,3.05-1.75,3.37-2.23.71a90.51,90.51,0,0,1-.87-12.71V276.64a13.63,13.63,0,0,0-2.62-7.34,9.83,9.83,0,0,0-6.69-3.22c-2.24,0-5.3,1.85-6.79,4.12s-3.13,10.12-3.64,17.46l-.09,1.24c-.51,7.34-1.35,19.35-1.87,26.7L271,327.22a137.47,137.47,0,0,1-3.47,22.3c-1.39,4.92-3.31,11.37-4.27,14.32s-1.74,4.16-1.74,2.69a34,34,0,0,0-1.36-7.34,24.63,24.63,0,0,0-3.78-7.52c-1.34-1.58-3.95-4.72-5.82-7s-4.79-4.12-6.5-4.12a22.48,22.48,0,0,0-5.82.9c-1.49.49-2.71,1.7-2.71,2.69a30.5,30.5,0,0,0,2.23,7.16C239,354.26,240,362.7,240,370.06V387.7a144.09,144.09,0,0,0,3,26.43l8,35.14c1.63,7.18,3.37,13.53,3.85,14.12s1,4.38,1.26,8.42a3.42,3.42,0,0,0,.12.78L253.55,512h75.61l.36-46c.07-1.84.17-3.53.28-4.6a30.88,30.88,0,0,1,2.52-8.23,74.65,74.65,0,0,1,4.85-8.42,39.18,39.18,0,0,0,4.27-9.13c.85-2.86,2.6-8,3.88-11.46s3.2-8.36,4.26-10.92,2.73-6.51,3.69-8.77a25.39,25.39,0,0,0,1.74-8.24A20.73,20.73,0,0,0,354,389.8Z"/><path class="cls-4" d="M239,355.13s-2.6-8.61-3.37-10c0,0,3.15-2.58,5.22,0,2.26,2.84,3.86,8.12,3.86,8.12Z"/><path class="cls-4" d="M278.23,281.69h11.89s1.17-7.18,0-10.2c-1.54-4-7.49-2.72-10.42-1.27C278,271.06,278.23,281.69,278.23,281.69Z"/><path class="cls-7" d="M389.64,204.06A16.68,16.68,0,0,0,373,187.38h-8.61a19.41,19.41,0,0,0-14.6-29.06,53.1,53.1,0,0,0-105.64-4.81,35,35,0,0,0-59.62,24.79,35.21,35.21,0,0,0,1.19,9.08h-9.37a16.68,16.68,0,0,0-16.68,16.68v9.66h133.6c1.15.08,2.31.13,3.48.13s2.33,0,3.48-.13h89.45Z"/></svg>