<?xml version="1.0" encoding="utf-8"?>
<!-- Generator: Adobe Illustrator 23.1.0, SVG Export Plug-In . SVG Version: 6.00 Build 0)  -->
<svg version="1.1" xmlns="http://www.w3.org/2000/svg" xmlns:xlink="http://www.w3.org/1999/xlink" x="0px" y="0px"
	 viewBox="0 0 512 512" style="enable-background:new 0 0 512 512;" xml:space="preserve">
<style type="text/css">
	.st0{display:none;}
	.st1{display:inline;fill:#DED8D0;}
	.st2{display:inline;fill:#C9C4BD;}
	.st3{display:inline;fill:#F5A947;}
	.st4{display:inline;fill:#F09D3A;}
	.st5{display:inline;fill:#E34E4B;}
	.st6{display:inline;fill:#50B6CF;}
	.st7{display:inline;}
	.st8{fill:#0D0F23;}
</style>
<g id="Layer_1_1_" class="st0">
	<path class="st1" d="M408,64c17.7,0,32,14.3,32,32v317.1c0,17.7-14.3,32-32,32H56c-17.7,0-32-14.3-32-32V96c0-17.7,14.3-32,32-32
		H408z"/>
	<path class="st2" d="M56,445.1h352c17.7,0,32-14.3,32-32V240c-75.7,82.8-203.8,143.8-416,155.1v18C24,430.8,38.3,445.1,56,445.1z"
		/>
	<circle class="st3" cx="408" cy="408" r="88"/>
	<path class="st4" d="M460.7,337.7c11,14.7,17.7,32.9,17.7,52.7c0,48.6-39.4,88-88,88c-19.8,0-38-6.6-52.7-17.7
		c16.1,21.4,41.5,35.3,70.3,35.3c48.6,0,88-39.4,88-88C496,379.2,482.1,353.7,460.7,337.7L460.7,337.7z"/>
	<path class="st5" d="M440,144H24V96c0-17.7,14.3-32,32-32h352c17.7,0,32,14.3,32,32V144z"/>
	<path class="st3" d="M96,104c-8.8,0-16-7.2-16-16V40c0-8.8,7.2-16,16-16s16,7.2,16,16v48C112,96.8,104.8,104,96,104z"/>
	<path class="st3" d="M184,104c-8.8,0-16-7.2-16-16V40c0-8.8,7.2-16,16-16s16,7.2,16,16v48C200,96.8,192.8,104,184,104z"/>
	<path class="st3" d="M280,104c-8.8,0-16-7.2-16-16V40c0-8.8,7.2-16,16-16s16,7.2,16,16v48C296,96.8,288.8,104,280,104z"/>
	<path class="st3" d="M368,104c-8.8,0-16-7.2-16-16V40c0-8.8,7.2-16,16-16s16,7.2,16,16v48C384,96.8,376.8,104,368,104z"/>
	<path class="st6" d="M72,184h48v48H72V184z"/>
	<path class="st6" d="M160,184h48v48h-48V184z"/>
	<path class="st6" d="M248,184h48v48h-48V184z"/>
	<path class="st6" d="M336,184h48v48h-48V184z"/>
	<path class="st6" d="M72,272h48v48H72V272z"/>
	<path class="st6" d="M160,272h48v48h-48V272z"/>
	<path class="st6" d="M248,272h48v48h-48V272z"/>
	<path class="st6" d="M336,272h48v48h-48V272z"/>
	<path class="st6" d="M72,360h48v48H72V360z"/>
	<path class="st6" d="M160,360h48v48h-48V360z"/>
	<path class="st6" d="M248,360h48v48h-48V360z"/>
	<g class="st7">
		<path class="st8" d="M448,320.8V96c0-22.1-17.9-40-40-40h-16V40c0-13.2-10.8-24-24-24s-24,10.8-24,24v16h-40V40
			c0-13.2-10.8-24-24-24s-24,10.8-24,24v16h-48V40c0-13.2-10.8-24-24-24s-24,10.8-24,24v16h-40V40c0-13.2-10.8-24-24-24
			S72,26.8,72,40v16H56c-22.1,0-40,17.9-40,40v320c0,22.1,17.9,40,40,40h269c16.6,28.6,47.6,48,83,48c52.9,0,96-43.1,96-96
			C504,369.3,481,336,448,320.8z M360,40c0-4.4,3.6-8,8-8s8,3.6,8,8v48c0,4.4-3.6,8-8,8s-8-3.6-8-8V40z M272,40c0-4.4,3.6-8,8-8
			s8,3.6,8,8v48c0,4.4-3.6,8-8,8s-8-3.6-8-8V40z M176,40c0-4.4,3.6-8,8-8s8,3.6,8,8v48c0,4.4-3.6,8-8,8s-8-3.6-8-8V40z M88,40
			c0-4.4,3.6-8,8-8s8,3.6,8,8v48c0,4.4-3.6,8-8,8s-8-3.6-8-8V40z M56,72h16v16c0,13.2,10.8,24,24,24s24-10.8,24-24V72h40v16
			c0,13.2,10.8,24,24,24s24-10.8,24-24V72h48v16c0,13.2,10.8,24,24,24s24-10.8,24-24V72h40v16c0,13.2,10.8,24,24,24s24-10.8,24-24
			V72h16c13.2,0,24,10.8,24,24v40H32V96C32,82.8,42.8,72,56,72z M56,440c-13.2,0-24-10.8-24-24V152h400v163.2
			c-7.7-2-15.7-3.2-24-3.2c-5.5,0-10.8,0.6-16,1.4V272c0-4.4-3.6-8-8-8h-48c-4.4,0-8,3.6-8,8v48c0,4.4,3.6,8,8,8h19
			c-25.9,17.2-43,46.6-43,80c0,11.2,2,22,5.6,32H56z M376,312h-32v-32h32V312z M408,488c-44.1,0-80-35.9-80-80s35.9-80,80-80
			s80,35.9,80,80S452.1,488,408,488z"/>
		<path class="st8" d="M416,394.2V344h-16v50.2c-4.8,2.8-8,7.9-8,13.8c0,0.8,0.1,1.6,0.2,2.4L363,433.8l10,12.5l29.2-23.4
			c1.8,0.7,3.7,1.1,5.8,1.1c8.8,0,16-7.2,16-16C424,402.1,420.8,397,416,394.2z"/>
		<path class="st8" d="M120,176H72c-4.4,0-8,3.6-8,8v48c0,4.4,3.6,8,8,8h48c4.4,0,8-3.6,8-8v-48C128,179.6,124.4,176,120,176z
			 M112,224H80v-32h32V224z"/>
		<path class="st8" d="M208,176h-48c-4.4,0-8,3.6-8,8v48c0,4.4,3.6,8,8,8h48c4.4,0,8-3.6,8-8v-48C216,179.6,212.4,176,208,176z
			 M200,224h-32v-32h32V224z"/>
		<path class="st8" d="M296,176h-48c-4.4,0-8,3.6-8,8v48c0,4.4,3.6,8,8,8h48c4.4,0,8-3.6,8-8v-48C304,179.6,300.4,176,296,176z
			 M288,224h-32v-32h32V224z"/>
		<path class="st8" d="M336,240h48c4.4,0,8-3.6,8-8v-48c0-4.4-3.6-8-8-8h-48c-4.4,0-8,3.6-8,8v48C328,236.4,331.6,240,336,240z
			 M344,192h32v32h-32V192z"/>
		<path class="st8" d="M120,264H72c-4.4,0-8,3.6-8,8v48c0,4.4,3.6,8,8,8h48c4.4,0,8-3.6,8-8v-48C128,267.6,124.4,264,120,264z
			 M112,312H80v-32h32V312z"/>
		<path class="st8" d="M208,264h-48c-4.4,0-8,3.6-8,8v48c0,4.4,3.6,8,8,8h48c4.4,0,8-3.6,8-8v-48C216,267.6,212.4,264,208,264z
			 M200,312h-32v-32h32V312z"/>
		<path class="st8" d="M296,264h-48c-4.4,0-8,3.6-8,8v48c0,4.4,3.6,8,8,8h48c4.4,0,8-3.6,8-8v-48C304,267.6,300.4,264,296,264z
			 M288,312h-32v-32h32V312z"/>
		<path class="st8" d="M120,352H72c-4.4,0-8,3.6-8,8v48c0,4.4,3.6,8,8,8h48c4.4,0,8-3.6,8-8v-48C128,355.6,124.4,352,120,352z
			 M112,400H80v-32h32V400z"/>
		<path class="st8" d="M208,352h-48c-4.4,0-8,3.6-8,8v48c0,4.4,3.6,8,8,8h48c4.4,0,8-3.6,8-8v-48C216,355.6,212.4,352,208,352z
			 M200,400h-32v-32h32V400z"/>
		<path class="st8" d="M296,352h-48c-4.4,0-8,3.6-8,8v48c0,4.4,3.6,8,8,8h48c4.4,0,8-3.6,8-8v-48C304,355.6,300.4,352,296,352z
			 M288,400h-32v-32h32V400z"/>
	</g>
</g>
<g id="Layer_2">
	<g>
		<g>
			<path d="M452.2,227.4H314.6V62.1c0-22.9-18.8-41.6-41.8-41.6H59.8C36.8,20.5,18,39.1,18,62.1v387.9c0,22.9,18.8,41.6,41.8,41.6
				h212.9c23.1,0,41.8-18.6,41.8-41.6v-17.5h137.6c23.1,0,41.8-18.6,41.8-41.6V268.9C494,246,475.2,227.4,452.2,227.4z M452.2,255.1
				c7.7,0,13.9,6.2,13.9,13.9v17.5H314.6v-31.4H452.2z M286.7,449.9c0,7.6-6.3,13.9-13.9,13.9H59.8c-7.7,0-13.9-6.2-13.9-13.9V62.1
				c0-7.6,6.3-13.9,13.9-13.9h212.9c7.7,0,13.9,6.2,13.9,13.9V449.9z M452.2,404.7H314.6v-90.5h151.5v76.7
				C466.1,398.5,459.9,404.7,452.2,404.7z"/>
		</g>
		<g>
			<path d="M120.9,282.8c-1.7-8.3-10-12.8-17.7-10.5c-7.9,2.6-11.4,10.3-9.3,17.3c2.6,8,10.5,11.3,17.4,9.2
				C118.6,296.5,122.2,289.7,120.9,282.8L120.9,282.8z"/>
		</g>
		<g>
			<path d="M174.5,274c-10.3-6.7-23.7,2-21.4,14.2c2.4,11.4,16.8,15.1,24.5,6.1C182.9,287.6,181.1,278.5,174.5,274L174.5,274z"/>
		</g>
		<g>
			<path d="M239.9,282.8c-1.8-8.3-10.1-12.9-17.7-10.5c-7.8,2.5-11.4,10.2-9.3,17.3c2.6,7.9,10.4,11.3,17.4,9.2
				C237.6,296.4,241.2,289.6,239.9,282.8L239.9,282.8z"/>
		</g>
		<g>
			<path d="M120.9,342c-1.7-8.2-9.9-12.9-17.7-10.5c-7.9,2.6-11.4,10.3-9.3,17.3c2.6,8,10.5,11.3,17.4,9.2
				C118.6,355.6,122.2,348.8,120.9,342L120.9,342z"/>
		</g>
		<g>
			<path d="M174.5,333.1c-10.3-6.8-23.7,2-21.4,14.2c2.4,11.4,16.8,15.1,24.5,6.1C182.9,346.7,181.1,337.6,174.5,333.1L174.5,333.1z
				"/>
		</g>
		<g>
			<path d="M239.9,342c-1.7-8.3-10.1-12.9-17.7-10.5c-8,2.5-11.4,10.5-9.3,17.3c2.5,7.8,10.3,11.3,17.4,9.2
				C237.6,355.5,241.2,348.7,239.9,342z"/>
		</g>
		<g>
			<path d="M120.9,401.1c-1.7-8.2-9.9-12.9-17.7-10.5c-8,2.6-11.3,10.4-9.3,17.3c2.6,8,10.6,11.3,17.4,9.2
				C118.5,414.7,122.2,407.9,120.9,401.1L120.9,401.1z"/>
		</g>
		<g>
			<path d="M174.5,392.2c-7-4.5-16.1-2.2-20,5c-5.5,10.6,3.6,22.2,15,20.1C181.7,414.8,184.7,399.1,174.5,392.2z"/>
		</g>
		<g>
			<path d="M239.9,401.1c-1.8-8.3-10.1-12.9-17.7-10.5c-7.7,2.4-11.4,10.2-9.3,17.3c2.6,7.9,10.5,11.3,17.4,9.2
				C237.5,414.7,241.2,407.9,239.9,401.1L239.9,401.1z"/>
		</g>
		<g>
			<path d="M241.1,79.6H92.4c-7.7,0-13.9,6.2-13.9,13.9v118.2c0,7.7,6.2,13.9,13.9,13.9h148.8c7.7,0,13.9-6.2,13.9-13.9V93.5
				C255.1,85.8,248.8,79.6,241.1,79.6z M227.2,197.8H106.3v-90.5h120.9V197.8z"/>
		</g>
	</g>
</g>
</svg>
