<?xml version="1.0" encoding="utf-8"?>
<!-- Generator: Adobe Illustrator 23.1.0, SVG Export Plug-In . SVG Version: 6.00 Build 0)  -->
<svg version="1.1" xmlns="http://www.w3.org/2000/svg" xmlns:xlink="http://www.w3.org/1999/xlink" x="0px" y="0px"
	 viewBox="0 0 512 512" style="enable-background:new 0 0 512 512;" xml:space="preserve">
<style type="text/css">
	.st0{display:none;}
	.st1{display:inline;}
	.st2{fill:#FFAC96;}
	.st3{fill:#FFBCAB;}
	.st4{fill:#006DF0;}
	.st5{fill:#D80027;}
	.st6{fill:#BD0022;}
	.st7{fill:#F1F2F2;}
	.st8{fill:#231F20;}
</style>
<g id="Layer_1" class="st0">
	<g id="healthcare-covid19-coronavirus-hand-hearth" class="st1">
		<path class="st2" d="M125.7,242.2L89.4,137.8C86.3,125.1,73.8,117,61,119.2c-13,2.8-21.3,15.5-18.5,28.5c0.1,0.4,0.2,0.8,0.3,1.1
			L80,264L125.7,242.2z"/>
		<path class="st2" d="M386.3,242.2l36.2-104.4c3.2-12.7,15.6-20.8,28.5-18.6c13,2.8,21.3,15.5,18.5,28.5c-0.1,0.4-0.2,0.8-0.3,1.1
			L432,264L386.3,242.2z"/>
		<path class="st3" d="M200.4,285.5L129.6,244c-10.1-5.8-22.9-3.5-30.4,5.4l-25.8-79.7C70.3,157.1,57.8,149,45,151.2
			c-13,2.8-21.3,15.5-18.5,28.5c0.1,0.4,0.2,0.8,0.3,1.1l34.8,129.8c1.6,6.1,5,11.5,9.7,15.7l54.1,48.1c6.8,6.1,10.7,14.8,10.7,23.9
			V424h96v-83.3C232,318,220,296.9,200.4,285.5z"/>
		<path class="st3" d="M467,151.2c-12.9-2.2-25.3,5.9-28.5,18.6l-25.8,79.7c-7.5-9-20.3-11.3-30.4-5.4l-70.7,41.5
			C292,297,280,318,280,340.7V424h96v-25.6c0-9.1,3.9-17.8,10.7-23.9l54.1-48.1c4.7-4.1,8.1-9.6,9.7-15.7l34.8-129.8
			c3.4-12.8-4.3-26-17.1-29.4C467.8,151.4,467.4,151.3,467,151.2L467,151.2z"/>
		<path class="st4" d="M272,424v64h112v-64h-8h-96H272z"/>
		<path class="st4" d="M240,424h-8h-96h-8v64h112V424z"/>
		<path class="st5" d="M363.5,148.5l-5.7,5.7L256,256L154.2,154.2l-5.7-5.7c-28.7-27.5-29.7-73.1-2.1-101.8s73.1-29.7,101.8-2.1
			c0.7,0.7,1.5,1.4,2.2,2.2l5.7,5.7l5.7-5.7C289.2,18,334.8,17,363.5,44.5s29.7,73.1,2.2,101.8C365,147,364.3,147.8,363.5,148.5z"/>
		<path class="st6" d="M363.5,46.7c-15.4-15.6-37.2-23.2-58.9-20.6c39.5,4.4,68,39.9,63.6,79.4c-1.8,16.2-9.1,31.4-20.6,43l-5.7,5.7
			L248,248l8,8l101.8-101.8l5.7-5.7C391.6,120.4,391.6,74.8,363.5,46.7z"/>
		<path class="st7" d="M272,176v-32h32v-32h-32V80h-32v32h-32v32h32v32H272z"/>
		<path class="st2" d="M406.4,269.6l-53.5,29.6c-3.2,1.8-4.4,5.8-2.7,9.1c1.7,3.4,5.9,4.8,9.3,3.1c0.1-0.1,0.3-0.1,0.4-0.2
			l46.5-25.6c10-5.8,14.5-18,10.6-28.9C415.1,262.2,411.3,266.7,406.4,269.6L406.4,269.6z"/>
		<path class="st2" d="M105.6,269.6l53.5,29.6c3.2,1.8,4.4,5.8,2.7,9.1c-1.7,3.4-5.9,4.8-9.3,3.1c-0.1-0.1-0.3-0.1-0.4-0.2
			l-46.5-25.6c-10-5.8-14.5-18-10.6-28.9C96.9,262.2,100.7,266.7,105.6,269.6L105.6,269.6z"/>
		<g>
			<path class="st8" d="M304,104h-24V80c0-4.4-3.6-8-8-8h-32c-4.4,0-8,3.6-8,8v24h-24c-4.4,0-8,3.6-8,8v32c0,4.4,3.6,8,8,8h24v24
				c0,4.4,3.6,8,8,8h32c4.4,0,8-3.6,8-8v-24h24c4.4,0,8-3.6,8-8v-32C312,107.6,308.4,104,304,104z M296,136h-24c-4.4,0-8,3.6-8,8v24
				h-16v-24c0-4.4-3.6-8-8-8h-24v-16h24c4.4,0,8-3.6,8-8V88h16v24c0,4.4,3.6,8,8,8h24V136z"/>
			<path class="st8" d="M477.8,146.9c0.2-1.4,0.2-2.8,0.2-4.2c-0.1-15.1-10.7-28.1-25.4-31.3c-16.8-3.2-33.3,7.2-37.6,23.8
				l-35.2,101.3c-0.5,0.2-1,0.4-1.5,0.7l-70.7,41.4c-22,12.9-35.6,36.5-35.6,62.1V416c-4.4,0-8,3.6-8,8v64c0,4.4,3.6,8,8,8h112
				c4.4,0,8-3.6,8-8v-64c0-4.4-3.6-8-8-8v-17.6c0-6.8,2.9-13.3,8-17.9l54.1-48.1c5.9-5.2,10.1-12,12.2-19.6L493,183
				c0.7-2.7,1.1-5.5,1.1-8.3C494,163.1,487.8,152.6,477.8,146.9L477.8,146.9z M430.3,139.8c2-8.6,10.3-14.2,19-12.8
				c7.4,1.5,12.7,8.1,12.7,15.6v0.2c-14.7,0.3-27.4,10.3-31.1,24.5l-22.3,68.9c-3.4-1.6-7-2.6-10.7-3L430.3,139.8z M376,480h-96v-48
				h96V480z M477.5,178.8l-34.8,129.9c-1.2,4.5-3.7,8.6-7.2,11.7l-54.2,48.1c-8.5,7.6-13.3,18.5-13.4,29.9V416h-80v-75.4
				c0.1-19.9,10.6-38.2,27.7-48.3l70.6-41.4c7.6-4.4,17.4-1.9,21.9,5.8c0,0,0,0,0,0.1c2.1,3.7,2.7,8.1,1.6,12.2
				c-1.1,4.1-3.8,7.6-7.5,9.7l-45.8,26.5c-3.7,2.4-4.8,7.3-2.5,11c2.2,3.5,6.8,4.7,10.5,2.8l45.8-26.5c7.4-4.2,12.8-11.2,15-19.4
				c2.2-8.2,1-16.9-3.2-24.2l-0.5-0.7l24.7-76.2c2-8.6,10.3-14.2,19-12.8c7.4,1.5,12.7,8.1,12.7,15.6
				C478.1,176,477.9,177.5,477.5,178.8L477.5,178.8z"/>
			<path class="st8" d="M240,416v-75.4c0-25.5-13.6-49.1-35.6-62.1L133.7,237c-0.5-0.2-1-0.4-1.5-0.6l-35-100.7
				c-4.2-16.8-20.8-27.5-37.8-24.3c-14.8,3.2-25.4,16.2-25.4,31.3c0,1.4,0.1,2.8,0.2,4.2c-10,5.7-16.2,16.3-16.2,27.8
				c0,2.8,0.4,5.6,1,8.3l34.8,129.8c2,7.6,6.2,14.5,12.2,19.7l54,48.1c5.1,4.6,8.1,11.1,8.1,17.9V416c-4.4,0-8,3.6-8,8v64
				c0,4.4,3.6,8,8,8h112c4.4,0,8-3.6,8-8v-64C248,419.6,244.4,416,240,416z M49.9,142.6c0-7.5,5.3-14,12.6-15.6
				c9-1.3,17.4,4.5,19.4,13.4l32.2,92.7c-3.7,0.4-7.3,1.4-10.7,3l-22.2-68.5c-3.7-14.3-16.5-24.5-31.3-24.9V142.6z M130.6,368.5
				l-54.1-48.1c-3.5-3.1-6-7.2-7.2-11.8L34.4,178.8c-0.3-1.4-0.5-2.8-0.5-4.2c0-7.5,5.3-14,12.6-15.6c8.9-1.3,17.3,4.4,19.3,13.2
				l24.6,75.8l-0.5,0.7c-4.2,7.3-5.4,16.1-3.2,24.2c2.2,8.2,7.6,15.2,15,19.4l45.8,26.5c3.9,2,8.7,0.5,10.8-3.4
				c1.9-3.7,0.7-8.2-2.8-10.5l-45.8-26.5c-3.7-2.1-6.4-5.6-7.5-9.7c-1.1-4.1-0.5-8.5,1.6-12.2c4.4-7.7,14.2-10.3,21.8-5.9
				c0,0,0,0,0,0l70.7,41.4c17.1,10.1,27.6,28.5,27.7,48.3V416h-80v-17.6C144,387,139.1,376.1,130.6,368.5L130.6,368.5z M232,480h-96
				v-48h96V480z"/>
			<path class="st8" d="M369.2,41.1C338,9.8,287.4,9.8,256.1,41c0,0-0.1,0.1-0.1,0.1c-31.2-31.3-81.8-31.3-113-0.1
				c0,0-0.1,0.1-0.1,0.1c-31.2,31.2-31.2,81.8,0,113.1l107.5,107.5c3.1,3.1,8.2,3.1,11.3,0l107.5-107.5
				C400.4,122.9,400.4,72.3,369.2,41.1L369.2,41.1z M256,244.7L154.1,142.8c-25-25-24.9-65.5,0.1-90.5c12-12,28.3-18.7,45.2-18.7
				c17-0.1,33.3,6.7,45.2,18.8l5.7,5.7c3.1,3.1,8.2,3.1,11.3,0l5.7-5.7c24.9-25,65.4-25,90.4-0.1c0,0,0.1,0.1,0.1,0.1
				c25,25,25,65.5,0,90.4L256,244.7z"/>
		</g>
	</g>
</g>
<g id="Layer_2">
	<g>
		<g>
			<path d="M491.7,392.2l-11-4.9c-0.4-1.5-0.9-3-1.4-4.5l6.2-10.6c1.4-2.4,1.4-5.5,0.1-7.9c-3.2-5.8-7.1-11.2-11.5-16.1
				c-1.9-2.2-4.9-3.1-7.7-2.5l-11.6,2.7c-1.1-0.9-2.3-1.8-3.5-2.6l-1.1-12.3c-0.3-2.8-2-5.3-4.6-6.5c-5.9-2.8-12.2-4.9-18.6-6.2
				c-2.9-0.6-5.8,0.4-7.7,2.6l-8.1,9.5h-3.9l-8.1-9.5c-1.9-2.2-4.9-3.2-7.7-2.6c-6.4,1.4-12.6,3.5-18.6,6.2
				c-2.6,1.2-4.4,3.7-4.6,6.5l-1.1,12.3c-1.2,0.8-2.4,1.7-3.5,2.6l-11.6-2.7c-2.8-0.7-5.8,0.3-7.7,2.5c-4.4,4.9-8.3,10.3-11.5,16.1
				c-1.4,2.5-1.4,5.5,0.1,7.9l6.1,10.6c-0.5,1.4-1,2.9-1.4,4.5l-11,4.9c-2.9,1.3-4.8,4.1-4.8,7.3v18.1c0,3.2,1.9,6,4.8,7.3l11,4.9
				c0.4,1.5,0.9,3,1.4,4.5l-6.2,10.6c-1.4,2.4-1.4,5.5-0.1,7.9c3.2,5.8,7.1,11.2,11.5,16.1c1.9,2.2,4.9,3.1,7.8,2.5l11.6-2.7
				c1.1,0.9,2.3,1.8,3.5,2.6l1.1,12.3c0.3,2.8,2,5.3,4.6,6.5c5.9,2.8,12.2,4.9,18.6,6.2c2.9,0.6,5.8-0.4,7.7-2.6l8.1-9.5h3.9
				l8.1,9.5c1.5,1.8,3.7,2.8,6.1,2.8c0.6,0,1.1-0.1,1.6-0.2c6.4-1.4,12.6-3.5,18.6-6.2c2.6-1.2,4.4-3.7,4.6-6.5l1.1-12.3
				c1.2-0.8,2.4-1.7,3.5-2.6l11.6,2.7c2.8,0.7,5.8-0.3,7.7-2.5c4.4-4.9,8.3-10.3,11.5-16.1c1.4-2.5,1.4-5.5-0.1-7.9l-6.2-10.6
				c0.5-1.4,1-2.9,1.4-4.5l11-4.9c2.9-1.3,4.8-4.1,4.8-7.3v-18.1C496.5,396.4,494.6,393.5,491.7,392.2z M470.6,416.8
				c-2.3,1-4,3.1-4.6,5.5c-0.7,3.3-1.7,6.5-3,9.6c-1,2.3-0.8,4.9,0.5,7.1l5.7,9.8c-1.3,2-2.7,3.9-4.2,5.8l-10.7-2.5
				c-2.5-0.6-5.1,0.1-7.1,1.8c-2.5,2.2-5.2,4.2-8,5.9c-2.1,1.3-3.5,3.6-3.8,6.1l-1,11.4c-2.1,0.8-4.3,1.6-6.5,2.2l-7.3-8.5
				c-1.5-1.8-3.7-2.8-6.1-2.8h-11.2c-2.3,0-4.5,1-6.1,2.8l-7.3,8.5c-2.1-0.6-4.3-1.3-6.5-2.2l-1-11.4c-0.2-2.5-1.6-4.8-3.8-6.1
				c-2.8-1.7-5.5-3.7-8-5.9c-1.9-1.7-4.6-2.4-7.1-1.8l-10.7,2.5c-1.5-1.9-2.9-3.8-4.2-5.8l5.7-9.8c1.2-2.2,1.4-4.8,0.5-7.1
				c-1.3-3.1-2.3-6.4-3-9.6c-0.6-2.5-2.3-4.5-4.6-5.5l-9.9-4.3v-7.7l9.9-4.3c2.3-1,4-3.1,4.6-5.5c0.7-3.3,1.7-6.5,3-9.7
				c1-2.3,0.8-4.9-0.5-7.1l-5.7-9.8c1.3-2,2.7-3.9,4.2-5.8l10.7,2.5c2.5,0.6,5.1-0.1,7.1-1.8c2.5-2.2,5.2-4.2,8-5.9
				c2.1-1.3,3.5-3.6,3.8-6.1l1-11.4c2.1-0.8,4.3-1.6,6.5-2.2l7.3,8.5c1.5,1.8,3.7,2.8,6.1,2.8h11.2c2.3,0,4.5-1,6.1-2.8l7.3-8.5
				c2.1,0.6,4.3,1.3,6.5,2.2l1,11.4c0.2,2.5,1.6,4.8,3.8,6.1c2.8,1.7,5.5,3.7,8,5.9c1.9,1.7,4.6,2.4,7.1,1.8l10.7-2.5
				c1.5,1.9,2.9,3.8,4.2,5.8l-5.7,9.8c-1.2,2.2-1.4,4.8-0.5,7.1c1.3,3.1,2.3,6.4,3,9.6c0.6,2.5,2.3,4.5,4.6,5.5l9.9,4.3v7.7
				L470.6,416.8z"/>
		</g>
	</g>
	<g>
		<g>
			<path d="M409,368.6c-22.1,0-40,17.9-40,40s17.9,40,40,40s40-17.9,40-40C449,386.5,431.1,368.6,409,368.6z M409,432.6
				c-13.3,0-24-10.7-24-24s10.7-24,24-24s24,10.7,24,24C433,421.8,422.3,432.6,409,432.6z"/>
		</g>
	</g>
	<g>
		<g>
			<path d="M241,48.6c-66.3,0-120,53.7-120,120c0.1,66.2,53.8,119.9,120,120c66.3,0,120-53.7,120-120S307.3,48.6,241,48.6z
				 M141.3,198.2c-16.4-55,14.9-112.9,70-129.3C221,66,231,64.6,241,64.6c10,0,20,1.5,29.6,4.4c-2,1.3-4,2.5-5.8,3.9
				c-2.7,2.1-3.9,5.6-2.8,8.9l3.7,11.2c-1.5,1.4-3,2.9-4.4,4.4l-11.2-3.7c-3.3-1.1-6.8,0.1-8.9,2.8c-5.9,7.8-10.9,16.2-14.7,25.2
				c-1.3,3.2-0.5,6.8,2,9.1l8.9,8c-0.6,2-1.1,4-1.6,6l-11.6,2.4c-3.7,0.8-6.4,4-6.4,7.8v27.3c0,3.8,2.6,7,6.4,7.8l11.6,2.4
				c0.5,2,1,4,1.6,6l-8.9,8c-2.6,2.3-3.4,5.9-2,9.1c3.9,9,8.8,17.4,14.7,25.2c2.1,2.7,5.6,3.9,8.9,2.8l11.2-3.7
				c1.4,1.5,2.9,3,4.4,4.4l-3.7,11.2c-1.1,3.3,0.1,6.8,2.8,8.9c1.8,1.4,3.8,2.6,5.8,3.9C215.6,284.6,157.7,253.3,141.3,198.2z
				 M289.2,260.7c-3.5-1.8-6.8-3.7-10.1-5.8l3.5-10.5c1-3.1,0.1-6.5-2.4-8.6c-3.7-3.1-7.1-6.5-10.2-10.2c-2.1-2.5-5.5-3.4-8.6-2.4
				l-10.6,3.5c-2.6-3.9-5-7.9-7.1-12l8.4-7.5c2.4-2.2,3.3-5.6,2.2-8.7c-1.6-4.5-2.9-9.2-3.8-13.9c-0.6-3.2-3-5.7-6.2-6.4l-10.4-2.2
				v-14.3l10.4-2.2c3.2-0.7,5.6-3.2,6.2-6.4c0.9-4.7,2.1-9.4,3.8-13.9c1.1-3.1,0.2-6.5-2.2-8.7l-8.4-7.5c2.1-4.2,4.4-8.2,7.1-12
				l10.6,3.5c3.1,1,6.5,0,8.6-2.4c3.1-3.7,6.5-7.1,10.2-10.2c2.5-2.1,3.4-5.5,2.4-8.6l-3.5-10.5c3.3-2.1,6.6-4.1,10.1-5.8
				c10.9,5.8,20.8,13.4,29,22.7c-38.3,10.3-61.1,49.7-50.8,88.1c6.7,24.8,26,44.1,50.8,50.8C310,247.2,300.2,254.9,289.2,260.7z
				 M281.6,160.6c3.5-24.5,22.8-43.8,47.3-47.3c21.4,33.8,21.4,76.9,0,110.6C298.4,219.5,277.2,191.2,281.6,160.6z"/>
		</g>
	</g>
	<g>
		<g>
			<path d="M451.8,153.1l-9.6-4.2c-0.3-1.1-0.7-2.3-1-3.4l5.4-9.2c1.4-2.4,1.4-5.4,0.1-7.9c-2.9-5.2-6.4-10.1-10.5-14.6
				c-1.9-2.2-4.9-3.1-7.8-2.5l-10.1,2.3c-0.9-0.7-1.7-1.3-2.6-1.9l-1-10.7c-0.3-2.8-2-5.3-4.6-6.5c-5.4-2.5-11-4.4-16.9-5.7
				c-2.8-0.6-5.6,0.3-7.5,2.4l-8.8,9.6C339.6,25.7,248.5-5,173.4,32.2S67.6,160.6,104.8,235.7c2.2,4.5,4.7,8.9,7.3,13.1l-21.4,26.8
				c-1.4,1.7-2,3.9-1.7,6.1c0.3,2.2,1.5,4.1,3.2,5.4l17.4,12.6L18.8,411.5C16,415,16.5,420,20,422.8c0,0,0,0,0,0l40,32
				c3.4,2.7,8.4,2.2,11.2-1.2l92.9-114.3l16.2,11.8c3.5,2.5,8.3,1.9,11-1.5l25-31.2c65.8,11.4,131.3-22,160.7-82l8.8,9.6
				c1.5,1.7,3.7,2.6,5.9,2.6c0.6,0,1.1-0.1,1.6-0.2c5.8-1.2,11.5-3.1,16.9-5.7c2.6-1.2,4.3-3.7,4.6-6.5l1-10.7
				c0.9-0.6,1.8-1.3,2.6-1.9l10.1,2.3c2.8,0.7,5.8-0.3,7.8-2.5c4-4.5,7.5-9.4,10.4-14.6c1.4-2.5,1.4-5.5-0.1-7.9l-5.4-9.2
				c0.4-1.1,0.7-2.2,1-3.4l9.6-4.2c2.9-1.3,4.8-4.1,4.8-7.3v-16.3C456.5,157.3,454.7,154.4,451.8,153.1z M63.8,437.4l-27.5-22
				l86.3-106.3l28.5,20.8L63.8,437.4z M183.5,333.6l-16.1-11.7l-0.9-0.7l-58-42.2l13.2-16.5c19.6,25,46.6,43.1,77.1,52L183.5,333.6z
				 M241,304.6c-75.1,0-136-60.9-136-136c0.1-75.1,60.9-135.9,136-136c75.1,0,136,60.9,136,136S316.1,304.6,241,304.6z M440.5,171.5
				l-8.4,3.7c-2.3,1-4,3.1-4.6,5.5c-0.7,2.9-1.5,5.8-2.7,8.6c-1,2.3-0.8,4.9,0.5,7.1l4.9,8.4c-1,1.5-2,3-3.1,4.4l-9.1-2.1
				c-2.5-0.6-5.1,0.1-7.1,1.8c-2.2,1.9-4.6,3.7-7.1,5.3c-2.1,1.3-3.5,3.6-3.8,6.1l-0.9,9.8c-1.6,0.6-3.3,1.2-4.9,1.7l-10.4-11.5
				c12.3-33.3,12.3-70,0-103.3l10.5-11.4c1.6,0.5,3.3,1,4.9,1.7l0.9,9.8c0.2,2.5,1.6,4.7,3.8,6.1c2.5,1.5,4.9,3.3,7.1,5.2
				c1.9,1.7,4.6,2.4,7.1,1.8l9.1-2.1c1.1,1.4,2.2,2.9,3.1,4.4l-4.9,8.4c-1.2,2.2-1.4,4.8-0.5,7.1c1.1,2.8,2,5.6,2.7,8.6
				c0.6,2.5,2.3,4.5,4.6,5.5l8.4,3.7L440.5,171.5L440.5,171.5z"/>
		</g>
	</g>
</g>
</svg>
