<?xml version="1.0" encoding="utf-8"?>
<!-- Generator: Adobe Illustrator 23.1.0, SVG Export Plug-In . SVG Version: 6.00 Build 0)  -->
<svg version="1.1" xmlns="http://www.w3.org/2000/svg" xmlns:xlink="http://www.w3.org/1999/xlink" x="0px" y="0px"
	 viewBox="0 0 512 512" style="enable-background:new 0 0 512 512;" xml:space="preserve">
<style type="text/css">
	.st0{display:none;}
	.st1{display:inline;fill:#C97523;}
	.st2{display:inline;fill:#A85613;}
	.st3{display:inline;fill:#8CC928;}
	.st4{display:inline;fill:#82B20B;}
	.st5{display:inline;fill:#E9EAEF;}
	.st6{display:inline;fill:#9EB1B7;}
	.st7{display:inline;}
	.st8{fill:#85C10D;}
	.st9{display:inline;fill:#D2D4D8;}
	.st10{display:inline;fill:#EA4756;}
	.st11{display:inline;fill:#A0D9F2;}
	.st12{display:inline;fill:#413740;}
</style>
<g id="Capa_1" class="st0">
	<polyline class="st1" points="134.9,346.2 134.9,449.9 91.4,449.9 91.4,346.2 	"/>
	<polyline class="st2" points="110.8,346.2 110.8,449.9 91.4,449.9 91.4,346.2 	"/>
	<ellipse class="st3" cx="113.1" cy="203" rx="105.6" ry="165.9"/>
	<path class="st4" d="M113.1,369C54.8,369,7.6,294.7,7.6,203S54.8,37.1,113.1,37.1c-25.8,0-46.7,74.3-46.7,165.9S87.3,369,113.1,369
		z"/>
	<polygon class="st5" points="462.4,263.6 462.4,474.9 185.2,474.9 185.2,263.6 324.6,128.4 	"/>
	<polyline class="st6" points="394.6,189 394.6,150 463.9,150 463.9,255 	"/>
	<g class="st7">
		<rect x="337.1" y="430.7" class="st8" width="167.3" height="44.3"/>
		<rect x="7.6" y="430.7" class="st8" width="189.6" height="44.3"/>
	</g>
	<polygon class="st9" points="462.4,271.9 462.4,311.4 323.8,179.1 185.2,311.4 185.2,271.9 312.8,150.4 323.8,140.2 334.8,150.4 	
		"/>
	<polygon class="st10" points="323.8,157.1 166,307.8 143.9,289.3 312.8,128.4 323.8,118.2 334.8,128.4 503.7,289.3 481.6,307.8 	
		"/>
	<rect x="219.1" y="316.6" class="st1" width="91.4" height="158.3"/>
	<rect x="337.1" y="316.6" class="st11" width="104.1" height="91.4"/>
	<rect x="337.1" y="316.6" class="st1" width="104.1" height="27.8"/>
	<circle class="st12" cx="323.8" cy="246" r="25.4"/>
	<path class="st7" d="M337.1,415.6h104.1c4.2,0,7.6-3.4,7.6-7.6v-91.4c0-4.2-3.4-7.6-7.6-7.6H337.1c-4.2,0-7.6,3.4-7.6,7.6V408
		C329.5,412.2,332.9,415.6,337.1,415.6z M344.7,400.5V352h88.9v48.5H344.7z M433.6,324.2v12.6h-88.9v-12.6H433.6z"/>
	<path class="st7" d="M504.4,423.1H470v-64.9c0-4.2-3.4-7.6-7.6-7.6l0,0c-4.2,0-7.6,3.4-7.6,7.6v64.9H337.1c-4.2,0-7.6,3.4-7.6,7.6
		v36.7h-11.4V316.6c0-4.2-3.4-7.6-7.6-7.6h-91.4c-4.2,0-7.6,3.4-7.6,7.6v150.7h-6.8v-36.7c0-4.2-3.4-7.6-7.6-7.6h-4.4V292.7
		l131-125.1l131,125.1v30c0,4.2,3.4,7.6,7.6,7.6l0,0c4.2,0,7.6-3.4,7.6-7.6v-15.5l6.4,6.1c2.8,2.7,7.2,2.8,10.1,0.3l21.9-18.4
		c1-0.9,1.9-1.9,2.3-3.1c1.2-3,0.4-6.2-1.8-8.3l-37.4-35.7V150c0-4.2-3.4-7.6-7.6-7.6h-69.3c-4.2,0-7.6,3.4-7.6,7.6v17.6l-47-44.8
		l-11-10.2c-2.9-2.7-7.4-2.7-10.3,0L307.6,123l-81.3,77.4c-0.6-57.7-19.8-111.2-50.9-142.6c-3.1-3.1-8.2-2.9-11.1,0.4l0,0
		c-2.6,3-2.5,7.5,0.3,10.4c28.8,29,46.5,79.7,46.5,134.5c0,4-0.1,8.1-0.3,12.1l-72.1,68.7c-2.2,2.1-3,5.3-1.8,8.3
		c0.5,1.2,1.3,2.3,2.3,3.1l21.9,18.4c1.4,1.2,3.1,1.8,4.9,1.8c1.9,0,3.8-0.7,5.2-2.1l6.4-6.1v14.7c-18,25.5-40.8,39.5-64.5,39.5
		c-25.5,0-49.7-16-68.2-45.1C25.7,286.1,15.2,245.9,15.2,203s10.6-83.1,29.7-113.3c18.5-29.1,42.7-45.1,68.2-45.1
		c8.9,0,17.6,1.9,26.1,5.8c3.5,1.6,7.7,0.2,9.6-3.2v0c2.2-3.9,0.6-8.8-3.5-10.7c-10.4-4.7-21.2-7-32.2-7c-30.9,0-59.7,18.5-81,52.1
		C11.4,114.1,0,157.3,0,203s11.4,88.9,32.1,121.4c14.4,22.7,32.2,38.4,51.7,46.3v52.3H60.7v-11.3c0-4.2-3.2-7.8-7.4-7.9
		c-4.3-0.1-7.8,3.3-7.8,7.6v11.6h-9.2v-11.3c0-4.2-3.2-7.8-7.4-7.9c-4.3-0.1-7.8,3.3-7.8,7.6v11.6H7.6c-4.2,0-7.6,3.4-7.6,7.6v44.3
		c0,4.2,3.4,7.6,7.6,7.6h189.6c0,0,0,0,0,0h21.9h91.4H337c0,0,0,0,0,0h167.3c4.2,0,7.6-3.4,7.6-7.6v-44.3
		C512,426.5,508.6,423.1,504.4,423.1z M402.2,157.6h54.1v76l-54.1-51.5V157.6z M165.7,297.6l-10.4-8.7L318,134l5.8-5.4l5.8,5.4
		l162.7,155l-10.4,8.7L329,151.6c-1.5-1.4-3.4-2.1-5.2-2.1c-1.9,0-3.8,0.7-5.2,2.1L165.7,297.6z M177.6,345.9v77.2h-10v-11.6
		c0-4.2-3.4-7.6-7.6-7.6s-7.6,3.4-7.6,7.6v11.6h-10v-52.3C155.1,365.6,166.9,357.3,177.6,345.9z M99,375.2c4.7,0.9,9.4,1.3,14.2,1.3
		c4.8,0,9.5-0.5,14.2-1.3v47.9H99V375.2z M15.2,438.2h76.1c0,0,0.1,0,0.1,0h43.5c0,0,0.1,0,0.1,0h54.6v29.1h-4.4v0h-170V438.2z
		 M226.7,467.3V324.2h76.2v143.1L226.7,467.3L226.7,467.3z M496.8,467.3h-34.4v0H344.7v-29.1h152.2L496.8,467.3L496.8,467.3z"/>
	<path class="st7" d="M292.5,387.7h-13.3c-4.2,0-7.6,3.4-7.6,7.6s3.4,7.6,7.6,7.6h13.3c4.2,0,7.6-3.4,7.6-7.6
		S296.7,387.7,292.5,387.7z"/>
	<path class="st7" d="M356.8,246c0-18.2-14.8-33-33-33c-18.2,0-33,14.8-33,33c0,18.2,14.8,33,33,33C342,279,356.8,264.2,356.8,246z
		 M323.8,263.8c-9.8,0-17.8-8-17.8-17.8s8-17.8,17.8-17.8s17.8,8,17.8,17.8C341.6,255.8,333.6,263.8,323.8,263.8z"/>
</g>
<g id="Layer_2">
	<g>
		<g>
			<path d="M464,8H256c-22.1,0-40,17.9-40,40v64.9c-2.6-0.5-5.3-0.9-8-0.9H48c-22.1,0-40,17.9-40,40v312c0,22.1,17.9,40,40,40h160
				c22.1,0,40-17.9,40-40V327.2c2.6,0.5,5.3,0.8,8,0.8h208c22.1,0,40-17.9,40-40V48C504,25.9,486.1,8,464,8z M24,152
				c0-13.2,10.8-24,24-24h160c2.8,0,5.4,0.6,8,1.6V160H24V152z M232,464c0,13.2-10.8,24-24,24H48c-13.2,0-24-10.8-24-24v-24h208V464
				z M232,320v104H24V176h192v112c0,13.1,6.4,24.7,16.2,32H232z M488,288c0,13.2-10.8,24-24,24H256c-13.2,0-24-10.8-24-24V48
				c0-13.2,10.8-24,24-24h208c13.2,0,24,10.8,24,24V288z"/>
		</g>
	</g>
	<g>
		<g>
			<rect x="96" y="456" width="64" height="16"/>
		</g>
	</g>
	<g>
		<g>
			<path d="M56,232v144h144V232H56z M184,360H72V248h112V360z"/>
		</g>
	</g>
	<g>
		<g>
			<path d="M88,259.1v89.9l89.9-44.9L88,259.1z M104,284.9l38.1,19.1L104,323.1V284.9z"/>
		</g>
	</g>
	<g>
		<g>
			<path d="M264,344v160h240V344H264z M488,488H280V360h208V488z"/>
		</g>
	</g>
	<g>
		<g>
			<polygon points="328,440 328,376 312,376 312,440 296,440 296,456 312,456 312,472 328,472 328,456 344,456 344,440 			"/>
		</g>
	</g>
	<g>
		<g>
			<polygon points="392,392 392,376 376,376 376,392 360,392 360,408 376,408 376,472 392,472 392,408 408,408 408,392 			"/>
		</g>
	</g>
	<g>
		<g>
			<polygon points="456,416 456,376 440,376 440,416 424,416 424,432 440,432 440,472 456,472 456,432 472,432 472,416 			"/>
		</g>
	</g>
	<g>
		<g>
			<path d="M360,160c-8.8,0-16-7.2-16-16c0-8.8,7.2-16,16-16s16,7.2,16,16h16c0-14.9-10.2-27.3-24-30.9V96h-16v17.1
				c-13.8,3.6-24,16-24,30.9c0,17.6,14.4,32,32,32c8.8,0,16,7.2,16,16s-7.2,16-16,16s-16-7.2-16-16h-16c0,14.9,10.2,27.3,24,30.9
				V240h16v-17.1c13.8-3.6,24-16,24-30.9C392,174.4,377.6,160,360,160z"/>
		</g>
	</g>
	<g>
		<g>
			<rect x="416" y="160" width="16" height="16"/>
		</g>
	</g>
	<g>
		<g>
			<rect x="288" y="160" width="16" height="16"/>
		</g>
	</g>
	<g>
		<g>
			<path d="M360,64c-57.3,0-104,46.7-104,104s46.7,104,104,104c24.9,0,49.1-9,67.9-25.3l-10.5-12.1c-16,13.8-36.4,21.4-57.5,21.4
				c-48.5,0-88-39.5-88-88s39.5-88,88-88s88,39.5,88,88c0,20.3-6.7,39.3-19.4,55.1l12.5,10c14.8-18.4,22.9-41.5,22.9-65.2
				C464,110.7,417.3,64,360,64z"/>
		</g>
	</g>
</g>
</svg>
