<?xml version="1.0" encoding="utf-8"?>
<!-- Generator: Adobe Illustrator 23.1.0, SVG Export Plug-In . SVG Version: 6.00 Build 0)  -->
<svg version="1.1" xmlns="http://www.w3.org/2000/svg" xmlns:xlink="http://www.w3.org/1999/xlink" x="0px" y="0px"
	 viewBox="0 0 512 512" style="enable-background:new 0 0 512 512;" xml:space="preserve">
<style type="text/css">
	.st0{display:none;}
	.st1{display:inline;fill:#FFD33F;}
	.st2{display:inline;fill:#EA3836;}
	.st3{display:inline;fill:#FFAC3E;}
	.st4{display:inline;fill:#383856;}
	.st5{display:inline;}
	.st6{fill:#91CECE;}
	.st7{display:inline;fill:#874D1B;}
	.st8{display:inline;fill:#D62121;}
	.st9{display:inline;fill:#83B2B7;}
	.st10{display:inline;fill:#202033;}
	.st11{display:inline;fill:#6B3713;}
</style>
<g id="Capa_1" class="st0">
	<path class="st1" d="M136.5,247.5c-4.7,0-9.5,0.3-14.2,0.8c-54.7,5.9-106.9,57.9-113,112.6c-8.1,70.2,42.3,133.7,112.5,141.8
		c28.6,3.3,57.5-3.2,82-18.3c12.4-8.1,26.6-13,41.3-14.5c3.5-0.3,7.1-0.5,10.8-0.5c3.5,0,6.9,0.1,10.3,0.4
		c14.9,1.4,29.3,6.4,41.9,14.6c60.2,37.1,139,18.5,176.1-41.7c15.1-24.5,21.5-53.3,18.2-81.8c-6.1-54.7-58.3-106.7-113-112.6
		c-4.7-0.5-9.4-0.8-14.1-0.8L136.5,247.5L136.5,247.5z"/>
	<circle class="st2" cx="315.7" cy="375.4" r="25.6"/>
	<path class="st3" d="M478.6,302.7c-102.7,115.1-334,157.9-424.3,170.6c42.2,35.7,102.6,40.1,149.6,10.9c12.4-8.1,26.6-13,41.3-14.5
		c3.6-0.3,7.2-0.4,10.8-0.4c3.5,0,6.9,0.1,10.3,0.4c14.9,1.4,29.3,6.4,41.9,14.6c60.2,37.1,139,18.5,176.1-41.7
		c15.1-24.5,21.5-53.3,18.2-81.8C499.8,339.6,491.5,319.6,478.6,302.7z"/>
	<polygon class="st4" points="119.5,315.7 153.6,315.7 153.6,358.4 196.3,358.4 196.3,392.5 153.6,392.5 153.6,435.2 119.5,435.2 
		119.5,392.5 76.8,392.5 76.8,358.4 119.5,358.4 	"/>
	<g class="st5">
		<circle class="st6" cx="375.4" cy="324.2" r="25.6"/>
		<circle class="st6" cx="375.4" cy="426.6" r="25.6"/>
	</g>
	<circle class="st2" cx="435.1" cy="375.4" r="25.6"/>
	<polyline class="st7" points="238.9,247.5 238.9,213.3 273.1,213.3 273.1,247.5 	"/>
	<path class="st8" d="M329,353.7c2.5,4,3.8,8.6,3.8,13.3c0,14.1-11.5,25.6-25.6,25.6c-4.7,0-9.3-1.3-13.3-3.8
		c7.3,12.1,23,15.9,35,8.7s15.9-23,8.7-35C335.5,358.8,332.5,355.8,329,353.7z"/>
	<path class="st9" d="M388.7,302.5c2.5,4,3.8,8.6,3.8,13.3c0,14.1-11.5,25.6-25.6,25.6c-4.7,0-9.3-1.3-13.3-3.8
		c7.3,12.1,23,15.9,35,8.7c12.1-7.3,15.9-23,8.7-35C395.2,307.6,392.2,304.6,388.7,302.5z"/>
	<path class="st8" d="M448.4,353.7c2.5,4,3.8,8.6,3.8,13.3c0,14.1-11.5,25.6-25.6,25.6c-4.7,0-9.3-1.3-13.3-3.8
		c7.3,12.1,23,15.9,35,8.7s15.9-23,8.7-35C454.9,358.8,452,355.8,448.4,353.7z"/>
	<path class="st9" d="M388.7,404.8c2.5,4,3.8,8.6,3.8,13.3c0,14.1-11.5,25.6-25.6,25.6c-4.7,0-9.3-1.3-13.3-3.8
		c7.3,12.1,23,15.9,35,8.7c12.1-7.3,15.9-23,8.7-35C395.2,410,392.2,407,388.7,404.8z"/>
	<path class="st10" d="M76.8,384.2v8.3h42.7v42.7h34.1v-42.7h42.7v-34.1H182C148.3,381.9,96.9,384.2,76.8,384.2z"/>
	<path class="st11" d="M238.9,245.1v2.3h34.1v-28C264.9,231.6,252.9,240.7,238.9,245.1z"/>
	<path class="st5" d="M196.3,349.8h-34.1v-34.1c0-4.7-3.8-8.5-8.5-8.5h-34.1c-4.7,0-8.5,3.8-8.5,8.5v34.1H76.8
		c-4.7,0-8.5,3.8-8.5,8.5v34.1c0,4.7,3.8,8.5,8.5,8.5H111v34.1c0,4.7,3.8,8.5,8.5,8.5h34.1c4.7,0,8.5-3.8,8.5-8.5V401h34.1
		c4.7,0,8.5-3.8,8.5-8.5v-34.1C204.8,353.7,201,349.8,196.3,349.8z M187.7,384h-34.1c-4.7,0-8.5,3.8-8.5,8.5v34.1H128v-34.1
		c0-4.7-3.8-8.5-8.5-8.5H85.4v-17.1h34.1c4.7,0,8.5-3.8,8.5-8.5v-34.1h17.1v34.1c0,4.7,3.8,8.5,8.5,8.5h34.1L187.7,384L187.7,384z"
		/>
	<path class="st5" d="M375.4,358.4c18.8,0,34.1-15.3,34.1-34.1c0-18.8-15.3-34.1-34.1-34.1c-18.8,0-34.1,15.3-34.1,34.1
		S356.6,358.4,375.4,358.4z M375.4,307.2c9.4,0,17.1,7.6,17.1,17.1s-7.6,17.1-17.1,17.1s-17.1-7.6-17.1-17.1S366,307.2,375.4,307.2z
		"/>
	<path class="st5" d="M375.4,392.5c-18.8,0-34.1,15.3-34.1,34.1s15.3,34.1,34.1,34.1c18.8,0,34.1-15.3,34.1-34.1
		C409.6,407.8,394.3,392.5,375.4,392.5z M375.4,443.7c-9.4,0-17.1-7.6-17.1-17.1s7.6-17.1,17.1-17.1s17.1,7.6,17.1,17.1
		S384.9,443.7,375.4,443.7z"/>
	<path class="st5" d="M315.7,341.3c-18.8,0-34.1,15.3-34.1,34.1s15.3,34.1,34.1,34.1c18.8,0,34.1-15.3,34.1-34.1
		C349.9,356.6,334.6,341.3,315.7,341.3z M315.7,392.5c-9.4,0-17.1-7.6-17.1-17.1s7.6-17.1,17.1-17.1s17.1,7.6,17.1,17.1
		S325.1,392.5,315.7,392.5z"/>
	<path class="st5" d="M435.2,341.3c-18.8,0-34.1,15.3-34.1,34.1s15.3,34.1,34.1,34.1s34.1-15.3,34.1-34.1
		C469.3,356.6,454,341.3,435.2,341.3z M435.2,392.5c-9.4,0-17.1-7.6-17.1-17.1s7.6-17.1,17.1-17.1s17.1,7.6,17.1,17.1
		S444.6,392.5,435.2,392.5z"/>
	<path class="st5" d="M390.5,239.8c-5-0.6-10-0.8-15.1-0.9h-93.9v-34.1h-17.1v-17.1c0-18.8-15.3-34.1-34.1-34.1h-42.7
		c-9.4,0-17.1-7.6-17.1-17.1s7.6-17.1,17.1-17.1h136.5c18.8,0,34.1-15.3,34.1-34.1s-15.3-34.1-34.1-34.1h-42.7
		c-9.4,0-17.1-7.6-17.1-17.1V0h-17.1v34.1c0,18.8,15.3,34.1,34.1,34.1h42.7c9.4,0,17.1,7.6,17.1,17.1s-7.6,17.1-17.1,17.1H187.7
		c-18.8,0-34.1,15.3-34.1,34.1s15.3,34.1,34.1,34.1h42.7c9.4,0,17.1,7.6,17.1,17.1v17.1h-17.1v34.1h-93.9c-5,0-10.1,0.3-15.1,0.9
		C62.6,246.1,7.4,301.1,0.9,359.9C-7.7,434.8,46.1,502.5,121,511c30.5,3.5,61.3-3.4,87.4-19.6c11.2-7.4,24.1-11.9,37.4-13.2
		c6.6-0.5,13.2-0.5,19.8-0.1c13.6,1.3,26.6,5.9,38,13.4c64.1,39.6,148.3,19.8,187.9-44.4c16.1-26.1,23-56.9,19.5-87.3
		C504.6,301.1,449.3,246.1,390.5,239.8z M247.5,221.9h17.1v17.1h-17.1V221.9z M464.5,455.1c-38.6,43.1-102.5,52.4-151.8,22
		c-13.7-9-29.5-14.4-45.8-15.9c-3.6-0.3-7.2-0.4-10.9-0.4c-3.9,0-7.7,0.2-11.5,0.5c-16.1,1.5-31.6,6.9-45.1,15.8
		c-56.1,34.7-129.7,17.4-164.4-38.7c-14.1-22.8-20.2-49.8-17.1-76.5c5.6-50.5,54.9-99.6,105.5-105c4.4-0.5,8.8-0.7,13.2-0.8h238.9
		c4.4,0,8.8,0.2,13.2,0.7c50.6,5.4,99.8,54.5,105.5,105C498.2,395.7,487.4,429.7,464.5,455.1z"/>
</g>
<g id="Layer_2">
	<g>
		<path d="M125.4,358.4h15.5v15.5h-15.5V358.4z"/>
		<path d="M63.5,358.4h15.5v15.5H63.5V358.4z"/>
		<path d="M94.4,358.4h15.5v15.5H94.4V358.4z"/>
		<path d="M458.3,64.2h-23.2V41c0-12.8-10.4-23.2-23.2-23.2H102.2c-12.8,0-23.2,10.4-23.2,23.2v23.2H55.7
			C34.4,64.2,17,81.6,17,102.9v263.2c0,21.3,17.4,38.7,38.7,38.7h139.1c-1.3,12.3-7.7,23.5-17.8,31h-20.6
			c-21.3,0-38.7,17.4-38.7,38.7c0,12.8,10.4,23.2,23.2,23.2h232.3c12.8,0,23.2-10.4,23.2-23.2c0-21.3-17.4-38.7-38.7-38.7H337
			c-10.1-7.4-16.5-18.6-17.8-31h139.1c21.3,0,38.7-17.4,38.7-38.7V102.9C497,81.6,479.6,64.2,458.3,64.2z M311.2,219.1h77.4v108.4
			h-77.4V219.1z M317.4,203.6l27.2-43.5c2.3-3.7,8.3-3.7,10.6,0l27.2,43.5H317.4z M368.3,151.8c-4-6.4-10.9-10.2-18.4-10.2
			s-14.4,3.8-18.4,10.2l-35.8,57.3v118.4h-80.2l-6.6-11.9c1.2-2.5,2.2-5,3.2-7.5l21.7-5.5V244l-21.7-5.5c-0.9-2.5-2-4.9-3.1-7.4
			l11.5-19.3l-41.4-41.4l-19.3,11.5c-2.5-1.1-4.9-2.2-7.4-3.1l-5.5-21.7H94.4v-31h325.2v201.3h-15.5V209.1L368.3,151.8z M78.9,327.5
			H63.5V110.7h15.5V327.5z M94.4,304c6.5,4.9,14.5,7.9,23.2,7.9c21.3,0,38.7-17.4,38.7-38.7s-17.4-38.7-38.7-38.7
			c-8.7,0-16.7,3-23.2,7.9v-18.1c7.2-3.4,15.1-5.3,23.2-5.3c29.9,0,54.2,24.3,54.2,54.2s-24.3,54.2-54.2,54.2H94.4V304z M94.4,273.3
			c0-12.8,10.4-23.2,23.2-23.2s23.2,10.4,23.2,23.2c0,12.8-10.4,23.2-23.2,23.2S94.4,286.1,94.4,273.3z M187.3,273.3
			c0-38.4-31.3-69.7-69.7-69.7c-8,0-15.8,1.5-23.2,4.1v-35.1h40.4l4.6,18.2l4.1,1.3c4.3,1.4,8.7,3.2,13.1,5.5l3.8,2l16.2-9.6
			l24.3,24.3l-9.6,16.2l2,3.8c2.2,4.3,4.1,8.7,5.5,13l1.3,4.1l18.2,4.6v34.4l-18.2,4.6l-1.3,4.1c-1.4,4.3-3.2,8.7-5.5,13l-1.9,3.7
			l6.4,11.6h-36.5C177.2,314.7,187.3,295.1,187.3,273.3z M435.1,110.7h15.5v216.8h-15.5V110.7z M102.2,33.3h309.7
			c4.3,0,7.7,3.5,7.7,7.7v69.7H94.4V41C94.4,36.7,97.9,33.3,102.2,33.3z M380.9,474.5c0,4.3-3.5,7.7-7.7,7.7H140.9
			c-4.3,0-7.7-3.5-7.7-7.7c0-12.8,10.4-23.2,23.2-23.2h201.3C370.5,451.3,380.9,461.7,380.9,474.5z M315.3,435.8H198.7
			c6.6-8.9,10.7-19.6,11.6-31h93.5C304.6,416.2,308.7,426.9,315.3,435.8z M481.5,366.2c0,12.8-10.4,23.2-23.2,23.2H55.7
			c-12.8,0-23.2-10.4-23.2-23.2V102.9c0-12.8,10.4-23.2,23.2-23.2h23.2v15.5H63.5c-8.5,0-15.5,6.9-15.5,15.5v216.8
			c0,8.5,6.9,15.5,15.5,15.5h387.1c8.5,0,15.5-6.9,15.5-15.5V110.7c0-8.5-6.9-15.5-15.5-15.5h-15.5V79.7h23.2
			c12.8,0,23.2,10.4,23.2,23.2V366.2z"/>
		<path d="M156.4,48.7h-46.5v46.5h46.5V48.7z M140.9,79.7h-15.5V64.2h15.5V79.7z"/>
		<path d="M218.3,48.7h-46.5v46.5h46.5V48.7z M202.8,79.7h-15.5V64.2h15.5V79.7z"/>
		<path d="M280.2,48.7h-46.5v46.5h46.5V48.7z M264.7,79.7h-15.5V64.2h15.5V79.7z"/>
		<path d="M342.2,296.5h15.5V312h-15.5V296.5z"/>
		<path d="M342.2,234.5h15.5V250h-15.5V234.5z"/>
		<path d="M342.2,265.5h15.5V281h-15.5V265.5z"/>
	</g>
</g>
</svg>
