<svg xmlns="http://www.w3.org/2000/svg" xmlns:xlink="http://www.w3.org/1999/xlink" viewBox="0 0 512 512"><defs><style>.cls-1{fill:#edb08e;}.cls-2{isolation:isolate;}.cls-15,.cls-16,.cls-21,.cls-3{opacity:0.1;}.cls-3{mix-blend-mode:multiply;}.cls-4{fill:#d89371;}.cls-5{fill:#00a8a8;}.cls-21,.cls-6{fill:#fff;}.cls-7{fill:#b3b3b3;}.cls-8{fill:#d6d6d6;}.cls-9{fill:#ccc;}.cls-10{fill:none;stroke:#39b54a;stroke-linecap:round;stroke-linejoin:round;stroke-width:5.79px;}.cls-11{font-size:14.11px;fill:gray;font-family:Montserrat-Bold, Montserrat Bold;font-weight:700;}.cls-12{letter-spacing:0em;}.cls-13{letter-spacing:-0.08em;}.cls-14{clip-path:url(#clip-path);}.cls-17{fill:#7f7f7f;}.cls-18{fill:#666;}.cls-19{fill:#fbb03b;}.cls-20{clip-path:url(#clip-path-2);}</style><clipPath id="clip-path"><path class="cls-1" d="M276.77,315.06s12.74-10.89,15.34-15.57,15.33-31.44,21.31-32.74,24.69,13.51,32.48,17.93,29.89-.76,35.6,6.25,15.86,24.67,25.21,43.9,15.07,40,20.53,49.64,12.48,20.27,28.59,43.14,55.61,83.16,55.61,83.16H419.71s-23.13-69.39-35.87-87.84-21.31-18.19-32-21.57-36.28-13.3-50-28.74-18.75-6.09-25.54-20.63c-3.43-7.35,6.25-8.56,3.14-19s14.92-10.9,20.05-5.66c2.38,2.42,6.15,5.95,3.77,15.52,0,0,9.28-.45,13.46,4,0,0,5.47-.84,9.89,1.14,0,0,13.25-11,13-23s-3.64-17.64-22.88-26.77c0,0-6.92,9.1-12.16,9.62,0,0-6.95,7.61-10.45,10S279.89,323.87,276.77,315.06Z"/></clipPath><clipPath id="clip-path-2"><path class="cls-1" d="M187.36,250.42a46.76,46.76,0,0,0-25.82,15.2c-.22.25-.43.52-.64.8-.43.55-.63.87-.63.87S151.1,268.81,148,274c0,0-5.52.34-9.42,3.2a48.93,48.93,0,0,1-10.27-7.57c-13.71,19.14-16.83,45.86-7.52,67.52,1.46-.76,2.94-1.53,4.44-2.39,9.7-5.56,32.66-20.67,42.78-38.66,8.25-14.67,14.38-12,18.29-19h0c4.36-4.6,5.36-8.64,15-14.35C206.44,259.65,200.29,247.51,187.36,250.42Z"/></clipPath></defs><title>registration</title><g class="cls-2"><g id="Capa_1" data-name="Capa 1"><path class="cls-3" d="M193.4,261.5A51,51,0,0,0,183,264.94c-2.59-.83-6.52-3.34-10.69-6.49a26,26,0,0,0,9.55-7.41c3.23-.71,6-2.65,6.61-6.88,0,0-14.75-7.68-18.28-11.57S146.47,208,140.36,208c-18.91,0-57.33,29-61.44,36.75S68.64,271.3,63.56,291.37,57.29,332.25,54,342.44,46.08,364.14,35.17,389c-6,13.78-18.31,46.19-28.06,72.35v51.69H80.83C85,480.69,97.49,386.44,104.54,369.9c7.22-16.91,14.36-20.61,22.24-24.59,1.46-.73,2.93-1.47,4.44-2.31.3-.16.61-.33.93-.52l.5-.28.49-.28.8-.47.24-.14,1-.57.14-.08,1.11-.67.05,0a165.16,165.16,0,0,0,15.17-10.48h0c8.49-6.6,17.15-14.84,22.38-23.83,8.26-14.18,14.38-11.6,18.29-18.39h0c4.36-4.45,5.36-8.35,15-13.87C212.48,270.42,206.33,258.69,193.4,261.5ZM154,284.29s-5.53.33-9.43,3.1a49.09,49.09,0,0,1-10.27-7.32c-.38-.37-.84-.75-1.35-1.16C139,274,144.77,268,148,265.23c6.48-5.6,10.54,8.33,18.54,12.22l-.25.35S157.14,279.26,154,284.29Z"/><path class="cls-4" d="M178.49,254.28c-2.37,0-7.13-3-12.24-7,7.31-3.15,14.23-12.44,10.18-12.44-5.39,0-23.14-15.62-29.34-22.88s-32.88,8.29-39.57,17.94c0,0-8.23,20.69,0,25.83h0c-1.74,6.52-3.21,16.16,2,19.45,8.23,5.15,25.71-14.91,32.4-20.89s10.79,9.58,19.33,13S183.87,254.28,178.49,254.28Z"/><path class="cls-1" d="M164.12,220.51c-3.52-4-23.69-25.45-29.8-25.45-18.91,0-57.33,30-61.44,38S62.6,260.56,57.53,281.34s-6.28,42.3-9.58,52.85-7.9,22.45-18.82,48.21c-6,14.27-18.31,47.8-28,74.88v53.49H74.79c4.15-33.51,16.66-131,23.71-148.16,7.22-17.5,14.36-21.34,22.24-25.45,5.81-22.55,5.81-33.62,7.52-67.52-3.31-3.24-11.93-8.14-12.85-12.9-2.27-11.74-7.89-21.92,15.77-35.83,0,0,17.24,11,22.47,10.37,0,0,8.41,6,12.32,7.54s15.25,2.93,16.43-6.34C182.4,232.48,167.65,224.53,164.12,220.51Z"/><rect class="cls-3" x="147.09" y="101.04" width="222.21" height="315.62" rx="13.94"/><rect class="cls-5" x="147.09" y="94.96" width="222.21" height="315.62" rx="13.94"/><rect class="cls-6" x="159.95" y="106.36" width="196.47" height="292.82"/><rect class="cls-7" x="217.57" y="159.04" width="119.3" height="9.87"/><rect class="cls-8" x="217.57" y="176.98" width="119.3" height="9.87"/><rect class="cls-8" x="178.49" y="194.93" width="158.38" height="9.87"/><path class="cls-8" d="M217.66,106.36a5.08,5.08,0,0,0,5.07,5h70.92a5.08,5.08,0,0,0,5.07-5Z"/><path class="cls-8" d="M293.65,81.28h-24.5a11,11,0,1,0-21.92,0h-24.5a5.08,5.08,0,0,0-5.08,5.09v17.18a5.07,5.07,0,0,0,5.08,5.08h70.92a5.08,5.08,0,0,0,5.09-5.08V86.37A5.09,5.09,0,0,0,293.65,81.28Zm-35.46,4.31a4.31,4.31,0,1,1,4.31-4.31A4.31,4.31,0,0,1,258.19,85.59Z"/><path class="cls-9" d="M217.65,99v4.55a5.07,5.07,0,0,0,5.08,5.08h70.92a5.08,5.08,0,0,0,5.09-5.08V99Z"/><path class="cls-8" d="M203.66,164v17.82H183.49V164h20.17m5-5H178.49v27.82h30.17V159Z"/><rect class="cls-7" x="217.57" y="221.4" width="119.3" height="9.87"/><rect class="cls-8" x="217.57" y="239.35" width="119.3" height="9.87"/><rect class="cls-8" x="178.49" y="257.29" width="158.38" height="9.87"/><rect class="cls-8" x="178.49" y="335.21" width="70.45" height="9.87"/><rect class="cls-8" x="178.49" y="352.53" width="38.57" height="9.87"/><rect class="cls-8" x="266.71" y="335.21" width="70.45" height="9.87"/><rect class="cls-8" x="266.71" y="352.53" width="38.57" height="9.87"/><path class="cls-8" d="M203.66,226.4v17.82H183.49V226.4h20.17m5-5H178.49v27.82h30.17V221.4Z"/><rect class="cls-7" x="178.49" y="283.76" width="158.38" height="9.71"/><path class="cls-8" d="M244.15,305.37v17.82H183.49V305.37h60.66m5-5H178.49v27.82h70.66V300.37Z"/><path class="cls-8" d="M331.87,305.37v17.82H271.2V305.37h60.67m5-5H266.2v27.82h70.67V300.37Z"/><polyline class="cls-10" points="211.3 160.02 193.51 177.81 184.24 168.53"/><polyline class="cls-10" points="211.3 221.4 193.51 239.19 184.24 229.91"/><text class="cls-11" transform="translate(177.95 141.08)">REGIST<tspan class="cls-12" x="40.99" y="0">R</tspan><tspan class="cls-13" x="48.65" y="0">A</tspan><tspan x="56.2" y="0">TION FORM</tspan></text><path class="cls-3" d="M193.4,261.5A51,51,0,0,0,183,264.94a26.83,26.83,0,0,1-5.81-3.05c-1.75,1.51-3.53,3-5.37,4.36A46.85,46.85,0,0,1,161,272.84a19,19,0,0,0,5.6,4.61l-.25.35s-9.16,1.46-12.31,6.49a22.59,22.59,0,0,0-7.22,1.84v26.39h.35v20.32c1.48-1.07,3-2.18,4.49-3.36h0c8.49-6.6,17.15-14.84,22.38-23.83,8.26-14.18,14.38-11.6,18.29-18.39h0c4.36-4.45,5.36-8.35,15-13.87C212.48,270.42,206.33,258.69,193.4,261.5Z"/><path class="cls-3" d="M309.08,401.87h0l.14.11c.44.36.89.71,1.34,1.06l.53.41,1,.74.61.45,1,.68.63.44c.33.23.66.46,1,.68l.59.4,1.2.79.4.26,1.6,1,.51.31,1.14.68.64.37,1,.59.67.38,1,.56.65.36,1.12.6.53.28,1.63.85.34.17,1.31.65.6.3,1,.5.65.31,1,.46.64.3,1,.46.56.26,1.32.58.24.1,1.52.66.5.2,1,.42.56.23.92.37.56.23.9.35.52.2,1,.38.35.14,1.31.48.28.1,1,.36.45.15.76.27.44.15.71.24.42.14q.36.14.72.24l.31.11,1,.31c10.65,3.36,19.23,3.1,32,21.47,8.09,11.65,20.35,43.73,28.24,65.61H497c-13-19.52-31.4-47.12-41.19-61-16.11-22.76-23.13-33.37-28.59-42.94-3.33-5.85-6.77-15.86-11.07-27.13l.15-.48c.77-2.85-.52-5.66-2.86-6.45-2-5.06-4.26-10.26-6.75-15.34-9.35-19.14-19.49-36.73-25.21-43.7-3.55-4.33-13.43-4-22.27-4.16h-.15c-.79,0-1.58,0-2.35-.06h-.27l-1-.05h-.27l-1-.07H354l-1-.09-.23,0-.82-.09-.34,0-.81-.12-.3-.05-.71-.13-.34-.07-.67-.16-.32-.08c-.2-.05-.39-.12-.58-.18l-.34-.1-.46-.18-.39-.16a7.88,7.88,0,0,1-.77-.38l-.75-.44-.35-.21-.47-.28-.44-.28-.43-.26-.54-.35-.37-.24-.6-.39-.36-.24c-.23-.14-.46-.3-.68-.45l-.32-.21-.79-.52-.25-.17-1-.69c-8.85-5.95-20.6-14.09-25.1-13.12-6,1.3-18.71,27.94-21.31,32.59-1.84,3.3-8.78,9.71-12.66,13.16a1.45,1.45,0,0,0-.46.4c-.71.64-1.29,1.15-1.68,1.48l-8.43-.94a6,6,0,0,0-2.22-.2,2.73,2.73,0,0,0-1.22.45,2.34,2.34,0,0,0-.5.45l-.06.1-2.74-.31c-.69-.17-1.3-.1-1.52.71s.28,1.16,1,1.36l2.52,1.1c.2,1.46,1.45,2.23,3.07,2.7L276,346.6l-.31,1.15a1.23,1.23,0,0,0,.75,1.57l2.64.71a1.16,1.16,0,0,0,1.28-.65l.35.1c-1.41,1.44-2,3.45-1.21,6.13,3.11,10.42-6.57,11.62-3.14,18.93,6.79,14.48,11.85,5.18,25.54,20.54a62.8,62.8,0,0,0,7.18,6.79ZM294.85,340c.56-.42,1.18-.95,1.83-1.52a8.31,8.31,0,0,0,1.44,2.33Zm34.61,3.48a64.46,64.46,0,0,0,7.87-7.21q.38.74.69,1.5c-3.72,4.42-8.1,8.87-8.1,8.87a10.58,10.58,0,0,0,1,2.29l-10.62-2.63A18.56,18.56,0,0,0,329.46,343.49Zm-17.12-2a7.72,7.72,0,0,0,3.05,3.64l-8-2A20.18,20.18,0,0,0,312.34,341.46Zm-9,24c1-4.1.91-7.09.25-9.35l29,8.34a49,49,0,0,1-5.64,5.88l0,0-.17.14h0l-.06.05h0c-.28-.13-.57-.24-.85-.34l-.31-.1-.58-.19-.35-.09-.55-.13-.35-.07-.55-.11-.32,0-.57-.08-.27,0-.61-.06h-.2l-.66,0h-.82a20.32,20.32,0,0,0-2.88.17C312.6,365,303.32,365.42,303.32,365.42Z"/><path class="cls-4" d="M336.39,298.79v-6.66H316c-2.28,3.71-3.58,6.28-4.23,7.46-2.6,4.68-15.33,15.57-15.33,15.57,3.12,8.81,13.9,5.09,17.4,2.72s10.44-10,10.44-10C324.62,307.87,340.24,297.09,336.39,298.79Z"/><path class="cls-4" d="M352,301.69v-9.56H333.48c-3.46,5.27-5.27,8.9-6.08,10.36-2.6,4.68-15.33,15.57-15.33,15.57,3.11,8.81,13.9,5.09,17.39,2.73s10.45-10,10.45-10C340.24,310.78,355.87,300,352,301.69Z"/><path class="cls-4" d="M363.39,307.6V292.13H351.3a129,129,0,0,0-8.53,16.27c-2.18,4.67-12.85,15.56-12.85,15.56,2.62,8.82,11.65,5.1,14.58,2.73s8.75-10,8.75-10C353.53,316.68,366.62,305.89,363.39,307.6Z"/><path class="cls-1" d="M276.77,315.06s12.74-10.89,15.34-15.57,15.33-31.44,21.31-32.74,24.69,13.51,32.48,17.93,29.89-.76,35.6,6.25,15.86,24.67,25.21,43.9,15.07,40,20.53,49.64,12.48,20.27,28.59,43.14,55.61,83.16,55.61,83.16H419.71s-23.13-69.39-35.87-87.84-21.31-18.19-32-21.57-36.28-13.3-50-28.74-18.75-6.09-25.54-20.63c-3.43-7.35,6.25-8.56,3.14-19s14.92-10.9,20.05-5.66c2.38,2.42,6.15,5.95,3.77,15.52,0,0,9.28-.45,13.46,4,0,0,5.47-.84,9.89,1.14,0,0,13.25-11,13-23s-3.64-17.64-22.88-26.77c0,0-6.92,9.1-12.16,9.62,0,0-6.95,7.61-10.45,10S279.89,323.87,276.77,315.06Z"/><g class="cls-14"><path class="cls-15" d="M409.52,360.42l-8.08-2.57c0-.11-.07-.22-.1-.33s-.07-.21-.11-.31-.11-.29-.17-.44l-.14-.32c-.06-.13-.12-.26-.19-.39s-.24-.43-.37-.64l-.19-.26-.27-.37-.22-.26-.3-.32-.24-.23a3.17,3.17,0,0,0-.34-.3,2.43,2.43,0,0,0-.25-.2l-.38-.27-.26-.16a4,4,0,0,0-.46-.24l-.23-.12a6.46,6.46,0,0,0-.73-.28l-58.11-18.47a1.45,1.45,0,0,0-.89-1.52l-3.59-1.22a1.49,1.49,0,0,0-1.7.77L267.79,311.5a1.29,1.29,0,0,0-.78-1.4l-2.9-1a1.37,1.37,0,0,0-1.67,1l-.43,1.25-10.6-1.88a4.72,4.72,0,0,0-3.86,0,3,3,0,0,0-.66.58l-3-.54c-.75-.24-1.44-.21-1.74.68s.23,1.33,1,1.59l2.73,1.42c.11,1.64,1.46,2.6,3.22,3.23l9.57,4.95-.43,1.25a1.39,1.39,0,0,0,.72,1.82l2.89,1a1.3,1.3,0,0,0,1.49-.63l63.58,22.89a1.47,1.47,0,0,0,.88,1.64l3.59,1.22a1.45,1.45,0,0,0,1.63-.67l57.36,20.65a7.67,7.67,0,0,0,7.24-1.31l2.29.82h0l5.69,2c2.75,1,5.92-.88,7-4.16S412.31,361.3,409.52,360.42Z"/></g><g class="cls-16"><path d="M356.06,395.56c-6.23-2.13-26.89-9.39-47-16.12,14.15,11.56,33.81,19.07,42.8,21.92,10.65,3.38,19.23,3.12,32,21.57s35.87,87.84,35.87,87.84h6.72s-25.68-72.07-38.41-92S366.71,399.2,356.06,395.56Z"/></g><path class="cls-17" d="M406.33,360.21l12.28,3.55c2.81.82,5.85-1.26,6.75-4.6s-.69-6.66-3.53-7.36l-12.41-3.09Z"/><path class="cls-17" d="M406.33,360.21l12.28,3.55c2.81.82,5.85-1.26,6.75-4.6s-.69-6.66-3.53-7.36l-12.41-3.09Z"/><path class="cls-17" d="M406.33,360.21l12.28,3.55c2.81.82,5.85-1.26,6.75-4.6s-.69-6.66-3.53-7.36l-12.41-3.09Z"/><path class="cls-18" d="M416.16,356.69a10.66,10.66,0,0,0-.2-6.35l-6.54-1.63-3.09,11.5,6.47,1.87A10.66,10.66,0,0,0,416.16,356.69Z"/><path class="cls-17" d="M252.64,314l3.6,1.58.93-3.46-3.9-.44c-.77-.19-1.45-.11-1.69.79S251.88,313.73,252.64,314Z"/><path class="cls-17" d="M258.88,318.21l11.05,4.85,2.86-10.63-12-1.35c-2.37-.59-4.45-.36-5.2,2.42S256.54,317.53,258.88,318.21Z"/><path class="cls-18" d="M271.18,318.41l1.61-6-12-1.35c-2.37-.59-4.45-.36-5.2,2.42a4.77,4.77,0,0,0-.12.69Z"/><path class="cls-17" d="M271.91,325.16l131.42,38c4.35,1.26,9.06-1.95,10.46-7.13s-1.07-10.32-5.47-11.41l-132.76-33Z"/><path class="cls-18" d="M414.14,354c.34-4.41-2-8.4-5.82-9.34l-132.76-33-1.29,4.77Z"/><path class="cls-19" d="M359.79,341.53a2.44,2.44,0,0,0,1.69,3l42.81,12.39a3.34,3.34,0,0,0,1.71-6.37l-43.24-10.76a2.46,2.46,0,0,0-3,1.75Z"/><path class="cls-19" d="M344.51,327.47l3.65,1a1.55,1.55,0,0,1,.93,2L345,345.76a1.55,1.55,0,0,1-1.79,1.24l-3.65-1a1.56,1.56,0,0,1-.93-2l4.13-15.34A1.56,1.56,0,0,1,344.51,327.47Z"/><path class="cls-19" d="M273.45,309.89l2.95.79a1.38,1.38,0,0,1,.83,1.77l-3.44,12.82a1.4,1.4,0,0,1-1.61,1.11l-2.95-.79a1.39,1.39,0,0,1-.83-1.77L271.84,311A1.4,1.4,0,0,1,273.45,309.89Z"/><path class="cls-1" d="M305.64,342.86c-1.39-.07-2.32,0-2.32,0,2.38-9.57-1.39-13.1-3.77-15.52-5.13-5.24-23.17-4.8-20.05,5.66s-6.57,11.68-3.14,19c6.79,14.54,11.85,5.19,25.54,20.63,1.16,1.31,2.42,2.58,3.74,3.81Z"/><path class="cls-1" d="M305.64,275c-5.69,8.66-11.82,21.36-13.53,24.45-2.6,4.68-15.34,15.57-15.34,15.57,3.12,8.81,13.91,5.09,17.4,2.73s10.45-10,10.45-10a7.71,7.71,0,0,0,1-.21Z"/><path class="cls-15" d="M338.52,279.93h0c.24.16,8.4,7.22,27.37,15.14s-1.44-8.24-1.44-8.24h0c-7.2-.13-14.66.05-18.55-2.15C344,283.59,341.41,281.88,338.52,279.93Z"/><path class="cls-15" d="M316.78,298.19a11.79,11.79,0,0,1-3.26-5.46s-.59,5.73,1.22,7.89Z"/><path class="cls-15" d="M276.36,352s2.86-7.5,9.62-7.35c0,0-8.22,4.22-8.92,8.77Z"/><path class="cls-1" d="M187.36,250.42a46.76,46.76,0,0,0-25.82,15.2c-.22.25-.43.52-.64.8-.43.55-.63.87-.63.87S151.1,268.81,148,274c0,0-5.52.34-9.42,3.2a48.93,48.93,0,0,1-10.27-7.57c-13.71,19.14-16.83,45.86-7.52,67.52,1.46-.76,2.94-1.53,4.44-2.39,9.7-5.56,32.66-20.67,42.78-38.66,8.25-14.67,14.38-12,18.29-19h0c4.36-4.6,5.36-8.64,15-14.35C206.44,259.65,200.29,247.51,187.36,250.42Z"/><g class="cls-20"><path class="cls-21" d="M194.54,255.59c-6.59,1.93-13.51,7.35-12.12,8.91s7.9,7.57,9.61,5.78,10.89-5.52,8.5-9.7S196.43,255,194.54,255.59Z"/><g class="cls-16"><path d="M175.58,274.21a11.67,11.67,0,0,1,3.43.85,16.59,16.59,0,0,1,3.09,1.63,16.42,16.42,0,0,1,2.68,2.24,11.41,11.41,0,0,1,2.08,2.86,27.6,27.6,0,0,1-3.06-1.63c-1-.59-1.9-1.19-2.82-1.81s-1.83-1.25-2.73-1.92A25.74,25.74,0,0,1,175.58,274.21Z"/></g></g><path class="cls-15" d="M78.55,410.58C74.13,442.89,65.81,491,62.44,510.77H74.79c4.15-33.51,16.66-131,23.71-148.16,7.22-17.5,14.36-21.34,22.24-25.45,1.46-.76,2.94-1.53,4.44-2.39a163,163,0,0,0,20.4-14c-23.57,8.9-39.76,15.87-47.83,23.86C93,349.32,84,370.47,78.55,410.58Z"/></g></g></svg>