<?xml version="1.0" encoding="utf-8"?>
<!-- Generator: Adobe Illustrator 23.1.0, SVG Export Plug-In . SVG Version: 6.00 Build 0)  -->
<svg version="1.1" xmlns="http://www.w3.org/2000/svg" xmlns:xlink="http://www.w3.org/1999/xlink" x="0px" y="0px"
	 viewBox="0 0 512 512" style="enable-background:new 0 0 512 512;" xml:space="preserve">
<style type="text/css">
	.st0{display:none;}
	.st1{display:inline;}
	.st2{fill:#5AAAE7;}
	.st3{fill:#3D9AE2;}
	.st4{fill:#FFD422;}
	.st5{fill:#EBBF00;}
	.st6{fill:#D1D3D4;}
	.st7{fill:#E6E7E8;}
	.st8{fill:#FFC477;}
</style>
<g id="Layer_1" class="st0">
	<g id="Online_Shopping-Shopping-Smartphone-Shopping_Bag-Commerce" class="st1">
		<path class="st2" d="M336,72v288c0,26.5-21.5,48-48,48H128c-17.2,0-33-9.2-41.6-24v-0.1c-4.2-7.3-6.4-15.5-6.4-23.9V72
			c0-26.5,21.5-48,48-48h160c25.1,0,46,19.4,47.8,44.4C335.9,69.6,336,70.8,336,72z"/>
		<path class="st3" d="M336,90v219.9c-12.9-5.6-24.6-13.4-34.8-23L245,297.4l29.1-49.3C247.5,187.4,275.2,116.6,336,90
			C335.9,90,336,90,336,90L336,90z"/>
		<path class="st4" d="M486.2,204.8c-11.5,65.3-73.7,108.8-139,97.4c-3.8-0.6-7.5-1.5-11.2-2.6c-19-5.2-36.5-15.1-50.8-28.7
			L229,281.4l29.1-49.3c-26.6-60.7,1.1-131.4,61.8-158c21.7-9.5,45.6-12.3,68.9-8.2C454.1,77.3,497.6,139.5,486.2,204.8L486.2,204.8
			z"/>
		<path class="st5" d="M328,160v96c0,8.8,7.2,16,16,16h80c8.8,0,16-7.2,16-16v-96H328z"/>
		<path class="st6" d="M424,224v16c0,8.8-7.2,16-16,16h-80c-8.8,0-16-7.2-16-16v-16H424z"/>
		<path class="st3" d="M312,144h112v80H312V144z"/>
		<path class="st7" d="M224,344c8.8,0,16,7.2,16,16c-0.1,8.8-7.2,15.9-16,16h-32c-8.8,0-16-7.2-16-16c0.1-8.8,7.2-15.9,16-16H224z"
			/>
		<path class="st7" d="M183.2,349.7c0,4.2-1.1,8.3-3.2,12l-2.6,4.6c-0.9-2-1.4-4.1-1.4-6.3c0-4.2,1.7-8.3,4.7-11.3
			c0.7-0.7,1.5-1.4,2.3-2C183.1,347.7,183.2,348.7,183.2,349.7L183.2,349.7z"/>
		<path class="st3" d="M182.6,161.4c12.5,12.5,12.6,32.8,0.1,45.3c-12.5,12.5-32.8,12.6-45.3,0.1c-12.5-12.5-12.6-32.8-0.1-45.3
			c6-6,14.2-9.4,22.7-9.4C168.5,152,176.6,155.4,182.6,161.4z"/>
		<path class="st4" d="M166.6,145.4c12.5,12.5,12.6,32.8,0.1,45.3c-12.5,12.5-32.8,12.6-45.3,0.1c-12.5-12.5-12.6-32.8-0.1-45.3
			c6-6,14.2-9.4,22.7-9.4C152.5,136,160.6,139.4,166.6,145.4z"/>
		<path class="st8" d="M167.2,333.7c0-13.3-10.7-24-24-24c-8.6,0-16.5,4.6-20.8,12l-36,62.2c-4.2-7.3-6.4-15.5-6.4-23.9V232.2
			c-5.4,0.7-10,4.2-12.3,9.1l-36.3,78.8C26.5,330.6,24,342,24,353.5V496l128-0.1v-34.7c0-8.7-2.4-17.3-6.9-24.7L128,408l36-62.3
			C166.1,342,167.2,337.9,167.2,333.7L167.2,333.7z"/>
		<path d="M144,48h16v16h-16V48z"/>
		<path d="M176,48h64v16h-64V48z"/>
		<path d="M328,360c0,22.1-17.9,40-40,40H141.9l27.5-47.6c-0.9,2.5-1.3,5-1.4,7.6c0,13.3,10.7,24,24,24h32c13.3,0,24-10.7,24-24
			s-10.7-24-24-24h-32c-7.7,0-15,3.8-19.5,10.1c6.9-16.2-0.7-35-16.9-41.9c-14.9-6.3-32.1-0.5-40.1,13.4l-27.2,47.1
			c-0.2-1.6-0.3-3.2-0.3-4.8V72c0-22.1,17.9-40,40-40h160c14.3,0,27.5,7.6,34.6,20l13.8-8c-10-17.3-28.5-28-48.5-28H128
			c-30.9,0-56,25.1-56,56v154.4c-5.1,2.4-9.2,6.4-11.6,11.5l-36.3,78.8c-5.4,11.6-8.1,24.2-8.1,36.9V496h16V353.6
			c0-10.4,2.2-20.7,6.6-30.2L72,251v109c0,9.6,2.4,19,7.1,27.3c1.8,4,6.5,5.8,10.6,4c1.5-0.7,2.8-1.9,3.7-3.3l36-62.4
			c4.5-7.6,14.3-10.2,21.9-5.7c7.6,4.4,10.1,14.1,5.8,21.7l-36,62.4c-1.5,2.5-1.4,5.6,0.1,8.1l17.1,28.5c3.7,6.2,5.7,13.4,5.7,20.6
			v34.7h16v-34.7c0-10.2-2.8-20.1-8-28.9l-9.8-16.4H288c30.9,0,56-25.1,56-56v-40h-16V360z M192,352h32c4.4,0,8,3.6,8,8s-3.6,8-8,8
			h-32c-4.4,0-8-3.6-8-8S187.6,352,192,352z"/>
		<path d="M472.9,110.6c-40.5-58-120.3-72.1-178.2-31.6c-48.8,34.1-67.6,97.3-45.5,152.5l-27,45.8c-1.6,2.7-1.5,6.1,0.3,8.6
			c1.8,2.6,5,3.8,8.1,3.3l52.2-9.8c17.7,15.9,39.6,26.5,63,30.6c7.4,1.3,14.8,1.9,22.3,1.9c70.7,0,128-57.3,128-128
			C496,157.7,487.9,132.1,472.9,110.6L472.9,110.6z M478.3,203.4c-10.7,60.9-68.8,101.6-129.7,90.9c-21.7-3.8-41.9-14-57.9-29.3
			c-1.5-1.4-3.5-2.2-5.5-2.2c-0.5,0-1,0-1.4,0.1l-39,7.3l20.2-34.1c1.3-2.2,1.4-4.9,0.5-7.3c-8.9-20.2-11.6-42.6-7.8-64.3
			c10.7-60.9,68.8-101.6,129.8-90.9S489.1,142.5,478.3,203.4z"/>
		<path d="M424,136h-24v-8c0-17.7-14.3-32-32-32s-32,14.3-32,32v8h-24c-4.4,0-8,3.6-8,8v96c0,13.2,10.8,24,24,24h80
			c13.2,0,24-10.8,24-24v-96C432,139.6,428.4,136,424,136z M352,128c0-8.8,7.2-16,16-16s16,7.2,16,16v8h-32V128z M416,240
			c0,4.4-3.6,8-8,8h-80c-4.4,0-8-3.6-8-8v-8h96V240z M416,216h-96v-64h16v16h16v-16h32v16h16v-16h16V216z"/>
		<path d="M178.3,122.3L166,134.7c-18.5-12.2-43.4-7.2-55.6,11.3s-7.2,43.4,11.3,55.6s43.4,7.2,55.6-11.3c8.9-13.4,8.9-30.9,0-44.3
			l12.3-12.3L178.3,122.3z M168,168c0,13.3-10.7,24-24,24s-24-10.7-24-24s10.7-24,24-24c3.6,0,7.1,0.8,10.3,2.4l-23.9,23.9
			l11.3,11.3l23.9-23.9C167.2,160.9,168,164.4,168,168L168,168z"/>
		<path d="M200,144h32v16h-32V144z"/>
		<path d="M200,176h32v16h-32V176z"/>
	</g>
</g>
<g id="Layer_2">
	<path d="M310.1,422h-97.5c-4.5,0-8.1,3.6-8.1,8.1v65h16.3v-24.4H302v24.4h16.3v-65C318.2,425.6,314.6,422,310.1,422z M220.7,454.5
		v-16.3H302v16.3H220.7z"/>
	<path d="M423.9,422h-8.1v-24.4c-0.2-47.9-32.4-89.8-78.8-102.1c1.4-1.3,2.8-2.4,4.2-3.8c0.5,0.1,1,0.2,1.4,0.3
		c35.8,0,64.8-29,64.8-64.8c0-5.5-0.7-10.9-2.1-16.2L381,116.4c-17-66.1-84.4-105.8-150.5-88.8c-43.5,11.2-77.5,45.2-88.8,88.8
		l-26.4,102.4c-8.1,31.3,10.7,63.2,42,71.3c4.8,1.2,9.7,1.9,14.6,1.9c2.6,0,4.9-1.3,6.4-3.4c2.3,2.4,4.7,4.7,7.1,6.9
		c-46.2,12.4-78.4,54.2-78.6,102.1V422h-8.1c-4.5,0-8.1,3.6-8.1,8.1v32.5c0,4.5,3.6,8.1,8.1,8.1h8.1v24.4h16.3v-24.4h24.9
		c2.2,4,4.7,7.7,7.6,11.2v13.2h16.3v-16.3c0-2.2-0.9-4.2-2.4-5.7c-8.7-9.6-13.6-22-13.9-34.9c0.4-12.9,5.3-25.3,13.9-34.9
		c1.5-1.5,2.4-3.6,2.4-5.7V318c7.7-4,15.9-6.8,24.4-8.3v6.6c0,35.9,29.1,65,65,65c35.9,0,65-29.1,65-65v-6.6
		c8.5,1.6,16.7,4.4,24.4,8.3v79.5c0,2.2,0.9,4.2,2.4,5.7c8.7,9.6,13.6,22,13.9,34.9c-0.4,12.9-5.3,25.3-13.9,34.9
		c-1.5,1.5-2.4,3.6-2.4,5.7v16.3H367v-13.2c2.9-3.5,5.4-7.2,7.6-11.2h24.9v24.4h16.3v-24.4h8.1c4.5,0,8.1-3.6,8.1-8.1v-32.5
		C432,425.6,428.4,422,423.9,422z M163.8,274.9c-22.9-4.5-37.8-26.7-33.3-49.6c0.2-0.8,0.3-1.6,0.5-2.4l26.4-102.4
		c14.8-57.4,73.4-91.9,130.7-77c37.8,9.8,67.3,39.3,77,77l24.4,94.6c6.7,26-8.9,52.4-34.9,59.1c-1.3,0.3-2.6,0.6-4,0.9V170
		c0-4.5-3.6-8.1-8.1-8.1h-16.3c-22.4,0-40.6-18.2-40.6-40.6c0-4.5-3.6-8.1-8.1-8.1s-8.1,3.6-8.1,8.1v40.6
		c-22.4,0-40.6-18.2-40.6-40.6c0-4.5-3.6-8.1-8.1-8.1c-4.5,0-8.1,3.6-8.1,8.1c0,22.4-18.2,40.6-40.6,40.6c-4.5,0-8.1,3.6-8.1,8.1
		V274.9z M180,264.3v-86.8c16.9-2.5,31.8-12.4,40.6-27c10.3,17.1,28.8,27.6,48.8,27.6h8.1c4.5,0,8.1-3.6,8.1-8.1v-8.9
		c10.7,10.9,25.3,17.1,40.6,17.1h8.1V275c-35.4,40.4-96.8,44.5-137.3,9.1C190.6,278.3,184.9,271.7,180,264.3L180,264.3z
		 M106.9,454.5v-16.3h32.5c0,5.5,0.7,11,2.2,16.3H106.9z M155.7,394.5c-6.6,8-11.4,17.4-14.1,27.5h-18.4v-24.4
		c0.1-26.6,12-51.8,32.5-68.7V394.5z M261.3,365.1c-26.9,0-48.7-21.8-48.8-48.8v-2.8c30.9,14.6,66.7,14.5,97.5-0.1v2.9
		C310.1,343.2,288.2,365,261.3,365.1z M399.5,397.6V422h-18.4c-2.7-10-7.5-19.4-14.1-27.5v-65.7C387.5,345.8,399.4,371,399.5,397.6z
		 M415.7,454.5h-34.7c1.4-5.3,2.1-10.8,2.2-16.3h32.5V454.5z"/>
	<path d="M188.2,381.3h16.3v16.3h-16.3V381.3z"/>
	<path d="M318.2,381.3h16.3v16.3h-16.3V381.3z"/>
	<path d="M253.2,251.3h8.1c9,0,16.3-7.3,16.3-16.3v-16.3c0-4.5-3.6-8.1-8.1-8.1c-4.5,0-8.1,3.6-8.1,8.1V235h-8.1
		c-4.5,0-8.1,3.6-8.1,8.1C245.1,247.6,248.7,251.3,253.2,251.3z"/>
	<path d="M204.4,202.5h32.5c4.5,0,8.1-3.6,8.1-8.1c0-4.5-3.6-8.1-8.1-8.1h-32.5c-4.5,0-8.1,3.6-8.1,8.1
		C196.3,198.9,199.9,202.5,204.4,202.5z"/>
	<path d="M285.7,202.5h32.5c4.5,0,8.1-3.6,8.1-8.1c0-4.5-3.6-8.1-8.1-8.1h-32.5c-4.5,0-8.1,3.6-8.1,8.1
		C277.6,198.9,281.2,202.5,285.7,202.5z"/>
	<path d="M228.8,218.8c0,4.5-3.6,8.1-8.1,8.1c-4.5,0-8.1-3.6-8.1-8.1c0-4.5,3.6-8.1,8.1-8.1C225.2,210.6,228.8,214.3,228.8,218.8z"
		/>
	<path d="M310.1,218.8c0,4.5-3.6,8.1-8.1,8.1s-8.1-3.6-8.1-8.1c0-4.5,3.6-8.1,8.1-8.1S310.1,214.3,310.1,218.8z"/>
	<path d="M269.4,275.7h-16.3c-4.5,0-8.1,3.6-8.1,8.1s3.6,8.1,8.1,8.1h16.3c4.5,0,8.1-3.6,8.1-8.1S273.9,275.7,269.4,275.7z"/>
</g>
</svg>
