<?xml version="1.0" encoding="utf-8"?>
<!-- Generator: Adobe Illustrator 23.1.0, SVG Export Plug-In . SVG Version: 6.00 Build 0)  -->
<svg version="1.1" xmlns="http://www.w3.org/2000/svg" xmlns:xlink="http://www.w3.org/1999/xlink" x="0px" y="0px"
	 viewBox="0 0 512 512" style="enable-background:new 0 0 512 512;" xml:space="preserve">
<style type="text/css">
	.st0{display:none;}
	.st1{display:inline;fill:#F1F2F2;}
	.st2{display:inline;}
	.st3{fill:#768BA0;}
	.st4{display:inline;fill:#A4B0C0;}
	.st5{display:inline;fill:#FFE451;}
	.st6{display:inline;fill:#FCB64F;}
	.st7{display:inline;fill:#768BA0;}
	.st8{fill:#31E8BB;}
	.st9{display:inline;fill:#31CCBB;}
	.st10{fill:#231F20;}
	.st11{display:inline;fill:#FFFFFF;}
	.st12{display:inline;fill:#231F20;}
</style>
<g id="Capa_1" class="st0">
	<path class="st1" d="M384.2,336.2c8.8,0,16,7.2,16,16s-7.2,16-16,16c-8.8,0-16-7.2-16-16S375.4,336.2,384.2,336.2z"/>
	<g class="st2">
		<path class="st3" d="M384.2,304.1c26.5,0,48.1,21.6,48.1,48.1s-21.6,48.1-48.1,48.1s-48.1-21.6-48.1-48.1
			C336.2,325.7,357.7,304.1,384.2,304.1z M400.3,352.2c0-8.8-7.2-16-16-16c-8.8,0-16,7.2-16,16s7.2,16,16,16
			C393.1,368.2,400.3,361,400.3,352.2z"/>
		<path class="st3" d="M127.8,304.1c26.5,0,48.1,21.6,48.1,48.1s-21.6,48.1-48.1,48.1s-48.1-21.6-48.1-48.1
			C79.7,325.7,101.2,304.1,127.8,304.1z M143.8,352.2c0-8.8-7.2-16-16-16s-16,7.2-16,16s7.2,16,16,16
			C136.6,368.2,143.8,361,143.8,352.2z"/>
	</g>
	<path class="st1" d="M127.8,336.2c8.8,0,16,7.2,16,16s-7.2,16-16,16s-16-7.2-16-16C111.7,343.4,118.9,336.2,127.8,336.2z"/>
	<polygon class="st4" points="312.1,111.7 312.1,151.8 191.9,151.8 223.9,111.7 	"/>
	<path class="st5" d="M504.5,288.1v64.1h-72.1c0-26.5-21.6-48.1-48.1-48.1s-48.1,21.6-48.1,48.1H175.8c0-26.5-21.6-48.1-48.1-48.1
		s-48.1,21.6-48.1,48.1H7.5V207.9h56.1l64.1-56.1h64.1h120.2h24l64.1,88.2c0,0,0,0,40.1,0C480.4,240,504.5,288.1,504.5,288.1z"/>
	<rect x="7.5" y="207.9" class="st6" width="56.1" height="144.3"/>
	<polygon class="st7" points="223.9,111.7 191.9,151.8 240,151.8 272,111.7 	"/>
	<g class="st2">
		<polygon class="st8" points="312.1,183.9 360.2,248 240,248 232,240 232,183.9 		"/>
		<polygon class="st8" points="199.9,183.9 199.9,248 103.7,248 103.7,232 143.8,199.9 143.8,183.9 		"/>
	</g>
	<polygon class="st9" points="264,183.9 232,183.9 232,240 240,248 272,248 264,240 	"/>
	<g class="st2">
		<path class="st10" d="M15.1,215.4h51.4l64.1-56.1h201.7l21.1,29l12.2-8.9L340,144.3h-20.4v-40.1h-99.3l-32.1,40.1h-63.3
			l-64.1,56.1H0V240h15.1V215.4z M227.6,119.2h77v25h-97L227.6,119.2z"/>
		<path class="st10" d="M512,286.3l-0.8-1.6c-1.1-2.1-26.6-52.3-70.9-52.3h-36.2l-26.9-37l-12.2,8.9l31.4,43.2h43.9
			c31.2,0,52.3,34.8,56.6,42.5v54.7h-57.6c-3.7-27.1-27-48.1-55.1-48.1c-28.1,0-51.4,21-55.1,48.1H248v15h81.2
			c3.7,27.1,27,48.1,55.1,48.1c28.1,0,51.4-21,55.1-48.1H512V286.3z M384.2,392.8c-22.4,0-40.6-18.2-40.6-40.6
			c0-22.4,18.2-40.6,40.6-40.6c22.4,0,40.6,18.2,40.6,40.6C424.8,374.6,406.6,392.8,384.2,392.8z"/>
		<path class="st10" d="M127.8,296.6c-28.1,0-51.4,21-55.1,48.1H15.1V264H0v95.7h72.7c3.7,27.1,27,48.1,55.1,48.1s51.4-21,55.1-48.1
			h41.1v-15h-41.1C179.2,317.5,155.9,296.6,127.8,296.6z M127.8,392.8c-22.4,0-40.6-18.2-40.6-40.6c0-22.4,18.2-40.6,40.6-40.6
			c22.4,0,40.6,18.2,40.6,40.6C168.3,374.6,150.1,392.8,127.8,392.8z"/>
		<path class="st10" d="M127.8,328.6c-13,0-23.6,10.6-23.6,23.6c0,13,10.6,23.6,23.6,23.6s23.6-10.6,23.6-23.6
			C151.3,339.2,140.7,328.6,127.8,328.6z M127.8,360.7c-4.7,0-8.5-3.8-8.5-8.5s3.8-8.5,8.5-8.5c4.7,0,8.5,3.8,8.5,8.5
			C136.3,356.9,132.4,360.7,127.8,360.7z"/>
		<path class="st10" d="M384.2,328.6c-13,0-23.6,10.6-23.6,23.6c0,13,10.6,23.6,23.6,23.6s23.6-10.6,23.6-23.6
			C407.8,339.2,397.2,328.6,384.2,328.6z M384.2,360.7c-4.7,0-8.5-3.8-8.5-8.5s3.8-8.5,8.5-8.5c4.7,0,8.5,3.8,8.5,8.5
			C392.8,356.9,388.9,360.7,384.2,360.7z"/>
	</g>
	<rect x="31.6" y="272.5" class="st11" width="16" height="15"/>
	<rect x="63.6" y="272.5" class="st12" width="16" height="15"/>
	<rect x="464.4" y="296.6" class="st11" width="16" height="15"/>
	<g class="st2">
		<path class="st10" d="M315.9,176.3h-91.4v66.7l12.4,12.4h138.4L315.9,176.3z M239.5,236.9v-45.5h68.9l36.8,49.1H243.1L239.5,236.9
			z"/>
		<path class="st10" d="M207.4,176.3h-71.2v19.9l-40.1,32.1v27.2h111.2V176.3z M192.4,240.5h-81.1v-4.9l40.1-32.1v-12.1h41.1V240.5
			L192.4,240.5z"/>
		<rect x="175.8" y="272.5" class="st10" width="16" height="15"/>
	</g>
	<rect x="191.9" y="288.5" class="st11" width="16" height="15"/>
	<rect x="207.9" y="272.5" class="st12" width="16" height="15"/>
	<rect x="223.9" y="288.5" class="st11" width="16" height="15"/>
	<rect x="240" y="272.5" class="st12" width="16" height="15"/>
	<rect x="256" y="288.5" class="st11" width="16" height="15"/>
	<rect x="272" y="272.5" class="st12" width="16" height="15"/>
	<rect x="288.1" y="288.5" class="st11" width="16" height="15"/>
	<rect x="304.1" y="272.5" class="st12" width="16" height="15"/>
</g>
<g id="Layer_2">
	<g id="Payment-3">
		<path d="M473,207H289v-8c0-4.4-3.6-8-8-8h-24v-16h80c26.5,0,48-21.5,48-48v-24c0-4.4-3.6-8-8-8h-72V63c0-26.5-21.5-48-48-48H89
			c-22.1,0-40,17.9-40,40v56.8C30.4,115.6,17,132,17,151v304c0,22.1,17.9,40,40,40h160c22.1,0,40-17.9,40-40v-40h24c4.4,0,8-3.6,8-8
			v-8h184c13.3,0,24-10.7,24-24V231C497,217.7,486.3,207,473,207z M369,127c0,17.7-14.3,32-32,32s-32-14.3-32-32v-16h64V127z M65,55
			c0-13.3,10.7-24,24-24h132.3c-7.9,8.8-12.3,20.2-12.3,32v112H65V55z M241,455c0,13.3-10.7,24-24,24H57c-13.3,0-24-10.7-24-24V151
			c0-10.1,6.4-19.1,16-22.5V183c0,4.4,3.6,8,8,8h160c4.4,0,8-3.6,8-8v-54.5c9.6,3.4,16,12.4,16,22.5V455z M225,111.8V63
			c0-17.7,14.3-32,32-32s32,14.3,32,32v64c0,11.8,4.4,23.2,12.3,32H257v-8C257,132,243.6,115.6,225,111.8z M273,399h-16V207h16V399z
			 M473,223c4.4,0,8,3.6,8,8v24H289v-32H473z M473,383H289V271h192v104C481,379.4,477.4,383,473,383z"/>
		<path d="M89,287H57c-4.4,0-8,3.6-8,8v32c0,4.4,3.6,8,8,8h32c4.4,0,8-3.6,8-8v-32C97,290.6,93.4,287,89,287z M81,319H65v-16h16V319
			z"/>
		<path d="M153,287h-32c-4.4,0-8,3.6-8,8v32c0,4.4,3.6,8,8,8h32c4.4,0,8-3.6,8-8v-32C161,290.6,157.4,287,153,287z M145,319h-16v-16
			h16V319z"/>
		<path d="M217,287h-32c-4.4,0-8,3.6-8,8v32c0,4.4,3.6,8,8,8h32c4.4,0,8-3.6,8-8v-32C225,290.6,221.4,287,217,287z M209,319h-16v-16
			h16V319z"/>
		<path d="M89,351H57c-4.4,0-8,3.6-8,8v32c0,4.4,3.6,8,8,8h32c4.4,0,8-3.6,8-8v-32C97,354.6,93.4,351,89,351z M81,383H65v-16h16V383
			z"/>
		<path d="M153,351h-32c-4.4,0-8,3.6-8,8v32c0,4.4,3.6,8,8,8h32c4.4,0,8-3.6,8-8v-32C161,354.6,157.4,351,153,351z M145,383h-16v-16
			h16V383z"/>
		<path d="M217,351h-32c-4.4,0-8,3.6-8,8v32c0,4.4,3.6,8,8,8h32c4.4,0,8-3.6,8-8v-32C225,354.6,221.4,351,217,351z M209,383h-16v-16
			h16V383z"/>
		<path d="M89,415H57c-4.4,0-8,3.6-8,8v32c0,4.4,3.6,8,8,8h32c4.4,0,8-3.6,8-8v-32C97,418.6,93.4,415,89,415z M81,447H65v-16h16V447
			z"/>
		<path d="M153,415h-32c-4.4,0-8,3.6-8,8v32c0,4.4,3.6,8,8,8h32c4.4,0,8-3.6,8-8v-32C161,418.6,157.4,415,153,415z M145,447h-16v-16
			h16V447z"/>
		<path d="M217,415h-32c-4.4,0-8,3.6-8,8v32c0,4.4,3.6,8,8,8h32c4.4,0,8-3.6,8-8v-32C225,418.6,221.4,415,217,415z M209,447h-16v-16
			h16V447z"/>
		<path d="M217,223H57c-4.4,0-8,3.6-8,8v32c0,4.4,3.6,8,8,8h160c4.4,0,8-3.6,8-8v-32C225,226.6,221.4,223,217,223z M209,255H65v-16
			h144V255z"/>
		<path d="M441,319c-5.9,0-11.6,2.2-16,6.2c-9.8-8.9-25-8.2-33.9,1.6c-8.9,9.8-8.2,25,1.6,33.9c9.2,8.3,23.1,8.3,32.3,0
			c9.8,8.9,25,8.2,33.9-1.6c8.9-9.8,8.2-25-1.6-33.9C452.8,321.2,447,319,441,319L441,319z M409,351c-4.4,0-8-3.6-8-8s3.6-8,8-8
			s8,3.6,8,8S413.4,351,409,351z M441,351c-4.4,0-8-3.6-8-8s3.6-8,8-8s8,3.6,8,8S445.4,351,441,351z"/>
		<path d="M81,63h16v16H81V63z"/>
		<path d="M113,63h80v16h-80V63z"/>
		<path d="M81,95h112v16H81V95z"/>
		<path d="M81,127h112v16H81V127z"/>
	</g>
</g>
</svg>
