<?xml version="1.0" encoding="utf-8"?>
<!-- Generator: Adobe Illustrator 23.1.0, SVG Export Plug-In . SVG Version: 6.00 Build 0)  -->
<svg version="1.1" xmlns="http://www.w3.org/2000/svg" xmlns:xlink="http://www.w3.org/1999/xlink" x="0px" y="0px"
	 viewBox="0 0 512 512" style="enable-background:new 0 0 512 512;" xml:space="preserve">
<style type="text/css">
	.st0{display:none;}
	.st1{display:inline;}
	.st2{fill-rule:evenodd;clip-rule:evenodd;fill:#A0C8FF;}
	.st3{fill-rule:evenodd;clip-rule:evenodd;fill:#FFFFFF;}
	.st4{fill-rule:evenodd;clip-rule:evenodd;fill:#FFCD69;}
	.st5{fill-rule:evenodd;clip-rule:evenodd;fill:#DFEDFF;}
	.st6{fill-rule:evenodd;clip-rule:evenodd;fill:#89A7BC;}
	.st7{fill-rule:evenodd;clip-rule:evenodd;fill:#FFE6B4;}
	.st8{fill-rule:evenodd;clip-rule:evenodd;fill:#D5EA7A;}
</style>
<g id="Capa_1" class="st0">
	<g class="st1">
		<g>
			<path class="st2" d="M262.9,398.2V273.8v-68.6v-58.3c0-9.1-7.5-16.6-16.6-16.6h-39.6h-138H29.1c-9.1,0-16.6,7.5-16.6,16.6v251.3
				L262.9,398.2L262.9,398.2z M190.3,216H85c-11,0-20-9-20-20s9-20,20-20h105.3c11,0,20,9,20,20S201.3,216,190.3,216z"/>
		</g>
		<g>
			<path class="st3" d="M210.3,196c0-11-9-20-20-20H85c-11,0-20,9-20,20s9,20,20,20h105.3C201.3,216,210.3,207,210.3,196z"/>
		</g>
		<g>
			<path class="st4" d="M453.8,502V273.8h-29H262.9v124.4v35.1c0,9.2-7.5,16.6-16.6,16.6h-12.4v29.2c0,12.6-10.3,22.9-22.9,22.9h3.2
				H453.8z M346.8,314.2l49.5,22.5L379.4,374l-49.5-22.5L346.8,314.2z M339.4,413.8c12.9,0,23.4,10.5,23.4,23.4
				c0,12.9-10.5,23.4-23.4,23.4c-12.9,0-23.4-10.5-23.4-23.4C316,424.2,326.5,413.8,339.4,413.8z"/>
		</g>
		<g>
			<path class="st5" d="M262.9,433.3v-35.1H12.5v35.1c0,9.2,7.5,16.6,16.6,16.6h12.4h45.7h101h45.7h12.4
				C255.4,449.9,262.9,442.4,262.9,433.3z"/>
		</g>
		<g>
			<path class="st6" d="M233.9,479.1v-29.2h-45.7v29.2c0,12.6,10.3,22.9,22.8,22.9C223.6,502,233.9,491.7,233.9,479.1L233.9,479.1z"
				/>
		</g>
		<g>
			<path class="st6" d="M87.2,479.1v-29.2H41.5v29.2c0,12.6,10.3,22.9,22.9,22.9C76.9,502,87.2,491.7,87.2,479.1z"/>
		</g>
		<g>
			<path class="st7" d="M499.5,475.9V299.9c0-14.3-11.7-26.1-26-26.1h-19.7V502h19.7C487.7,502,499.5,490.3,499.5,475.9z"/>
		</g>
		<g>
			<path class="st5" d="M396.4,336.7l-49.5-22.5l-16.9,37.3l49.5,22.5L396.4,336.7z"/>
		</g>
		<g>
			<path class="st8" d="M362.8,437.2c0-12.9-10.5-23.4-23.4-23.4c-12.9,0-23.4,10.5-23.4,23.4c0,12.9,10.5,23.4,23.4,23.4
				C352.4,460.6,362.8,450.1,362.8,437.2z"/>
		</g>
		<g>
			<path d="M473.4,263.8h-38.6v-27c0-15.2-12.3-27.5-27.5-27.5H272.9v-62.4c0-14.7-11.9-26.6-26.6-26.6h-29.6V37
				c0-20.4-16.6-37-37-37h-84c-20.4,0-37,16.6-37,37v83.3H29.1c-14.7,0-26.6,11.9-26.6,26.6v99.9c0,5.5,4.5,10,10,10s10-4.5,10-10
				v-99.9c0-3.6,3-6.6,6.6-6.6h217.1c3.6,0,6.6,3,6.6,6.6v241.3H22.5v-51.6c0-5.5-4.5-10-10-10s-10,4.5-10,10v96.7
				c0,14.7,11.9,26.6,26.6,26.6h2.4v19.2c0,18.1,14.7,32.9,32.9,32.9c18.1,0,32.8-14.7,32.8-32.9v-19.2h81v19.2
				c0,18.1,14.7,32.9,32.8,32.9h262.4c19.9,0,36-16.2,36-36.1V299.9C509.5,280,493.3,263.8,473.4,263.8L473.4,263.8z M196.7,120.3
				h-118V37c0-9.4,7.6-17,17-17h84c9.4,0,17,7.6,17,17L196.7,120.3z M272.9,229.2h134.4c4.1,0,7.5,3.4,7.5,7.5v27H272.9V229.2z
				 M77.2,479.1c0,7.1-5.8,12.9-12.8,12.9c-7.1,0-12.9-5.8-12.9-12.9v-19.2h25.7V479.1z M29.1,439.9c-3.6,0-6.6-3-6.6-6.6v-25.1
				h230.3v25.1c0,3.6-3,6.6-6.6,6.6H29.1z M223.9,479.1c0,7.1-5.8,12.9-12.9,12.9c-7.1,0-12.8-5.8-12.8-12.9v-19.2h25.7L223.9,479.1
				z M443.8,492H241.3c1.7-4,2.6-8.3,2.6-12.9v-19.2h2.4c14.7,0,26.6-12,26.6-26.6V283.8h170.9L443.8,492L443.8,492z M489.5,475.9
				c0,8.9-7.2,16.1-16,16.1h-9.7V283.8h9.7c8.9,0,16,7.2,16,16.1V475.9z"/>
			<path d="M75.1,246c-5.5,0-10,4.5-10,10c0,5.5,4.5,10,10,10h125.3c5.5,0,10-4.5,10-10s-4.5-10-10-10H75.1z"/>
			<path d="M220.3,196c0-16.5-13.4-30-30-30H85.1c-16.5,0-30,13.5-30,30c0,16.5,13.4,30,30,30h105.3
				C206.9,226,220.3,212.5,220.3,196z M190.3,206H85.1c-5.5,0-10-4.5-10-10c0-5.5,4.5-10,10-10h105.3c5.5,0,10,4.5,10,10
				C200.3,201.5,195.8,206,190.3,206z"/>
			<path d="M325.8,360.6l49.5,22.5c1.3,0.6,2.7,0.9,4.1,0.9c3.8,0,7.4-2.2,9.1-5.9l16.9-37.3c1.1-2.4,1.2-5.2,0.3-7.7
				c-0.9-2.5-2.8-4.5-5.2-5.6l-49.5-22.5c-2.4-1.1-5.2-1.2-7.7-0.3c-2.5,0.9-4.5,2.8-5.6,5.2l-16.9,37.3
				C318.5,352.4,320.8,358.3,325.8,360.6L325.8,360.6z M351.8,327.4l31.3,14.2l-8.7,19.1l-31.3-14.2L351.8,327.4z"/>
			<path d="M339.4,470.6c18.4,0,33.4-15,33.4-33.4c0-18.4-15-33.4-33.4-33.4c-18.4,0-33.4,15-33.4,33.4
				C306,455.6,321,470.6,339.4,470.6z M339.4,423.8c7.4,0,13.4,6,13.4,13.4c0,7.4-6,13.4-13.4,13.4c-7.4,0-13.4-6-13.4-13.4
				C326,429.8,332.1,423.8,339.4,423.8z"/>
			<path d="M12.5,301.7c5.5,0,10-4.5,10-10s-4.5-10-10-10s-10,4.5-10,10v0.1C2.5,297.3,7,301.7,12.5,301.7L12.5,301.7z"/>
		</g>
	</g>
</g>
<g id="Layer_2">
	<g>
		<path d="M476,48H36C20.5,48,8,60.5,8,76v360c0,15.5,12.5,28,28,28h440c15.5,0,28-12.5,28-28V76C504,60.5,491.5,48,476,48z
			 M488,436c0,6.6-5.4,12-12,12H36c-6.6,0-12-5.4-12-12V112h464V436z M488,96H24V76c0-6.6,5.4-12,12-12h440c6.6,0,12,5.4,12,12V96z"
			/>
		<path d="M40,88h8c4.4,0,8-3.6,8-8s-3.6-8-8-8h-8c-4.4,0-8,3.6-8,8S35.6,88,40,88z"/>
		<path d="M72,88h8c4.4,0,8-3.6,8-8s-3.6-8-8-8h-8c-4.4,0-8,3.6-8,8S67.6,88,72,88z"/>
		<path d="M104,88h8c4.4,0,8-3.6,8-8s-3.6-8-8-8h-8c-4.4,0-8,3.6-8,8S99.6,88,104,88z"/>
		<path d="M295,240h-63v-8c0-4.4-3.6-8-8-8h-16c-4.4,0-8,3.6-8,8s3.6,8,8,8h8v56c0,4.4,3.6,8,8,8h63c3.9,0,7.2-2.8,7.9-6.7l8-48
			c0.7-4.4-2.2-8.5-6.6-9.2C295.9,240,295.4,240,295,240z M280.2,288H232v-32h53.6L280.2,288z"/>
		<circle cx="280" cy="320" r="8"/>
		<path d="M233,312c-4.4,0-9,3.6-9,8c0,4.4,3.6,8,8,8s8-3.6,8-8C240,315.6,237.4,312,233,312z"/>
		<path d="M469.1,265.9l-48-40c-3.4-2.8-8.4-2.4-11.3,1c-1.2,1.4-1.9,3.3-1.9,5.1v16h-64v-48c0-4.4-3.6-8-8-8H176c-4.4,0-8,3.6-8,8
			v48H48c-4.4,0-8,3.6-8,8v32c0,4.4,3.6,8,8,8h120v56c0,4.4,3.6,8,8,8h160c4.4,0,8-3.6,8-8v-56h64v16c0,4.4,3.6,8,8,8
			c1.9,0,3.7-0.7,5.1-1.9l48-40c3.4-2.8,3.9-7.9,1-11.3C469.8,266.5,469.5,266.2,469.1,265.9z M168,280H56v-16h112V280z M328,344
			H184V208h144V344z M424,294.9V288c0-4.4-3.6-8-8-8h-72v-16h72c4.4,0,8-3.6,8-8v-6.9l27.5,22.9L424,294.9z"/>
	</g>
</g>
</svg>
