<?xml version="1.0" encoding="utf-8"?>
<!-- Generator: Adobe Illustrator 23.1.0, SVG Export Plug-In . SVG Version: 6.00 Build 0)  -->
<svg version="1.1" xmlns="http://www.w3.org/2000/svg" xmlns:xlink="http://www.w3.org/1999/xlink" x="0px" y="0px"
	 viewBox="0 0 512 512" style="enable-background:new 0 0 512 512;" xml:space="preserve">
<style type="text/css">
	.st0{display:none;}
	.st1{display:inline;}
	.st2{fill:#4980AC;}
	.st3{fill:#407194;}
	.st4{fill:#5D91B9;}
	.st5{fill:#BE694E;}
	.st6{fill:#EBAE9D;}
	.st7{fill:#FFCDBE;}
	.st8{fill:#80B6FC;}
	.st9{fill:#62A4FB;}
	.st10{fill:#DDEBFD;}
	.st11{fill:#BED9FD;}
	.st12{fill:#DF646E;}
	.st13{fill:#F5DE46;}
	.st14{fill:#ECC52E;}
</style>
<g id="Capa_1" class="st0">
	<g class="st1">
		<path class="st2" d="M442.2,254.8H310.7c-16,0-28.9,13-28.9,28.9v220.8h164.3V404.3H467c17.2,0,31.1-13.9,31.1-31.1v-62.5
			C498.1,279.8,473.1,254.8,442.2,254.8L442.2,254.8z"/>
		<path class="st3" d="M330.8,404.3h115.3v28.5H330.8V404.3z"/>
		<path class="st4" d="M446.1,254.9v108.3H377v41.1H467c2.1,0,4.2-0.2,6.3-0.6c6.7-1.4,13.1-5,17.8-10.7c1.6-1.9,2.9-4,4-6.3
			c2-4.1,3.1-8.7,3.1-13.5v-62.5C498.1,281.1,475.1,256.9,446.1,254.9L446.1,254.9z"/>
		<g>
			<path class="st5" d="M278.7,30.7V133h180.7V86.4c0-37.5-30.4-67.9-67.9-67.9h-56.8c-5.7,0-11.3-1.6-16.1-4.6l-4.5-2.8
				C298.7,1.4,278.7,12.5,278.7,30.7z"/>
			<path class="st6" d="M341.6,175.1v84.5c0,13.1,10.6,23.6,23.6,23.6h7.6c13.1,0,23.6-10.6,23.6-23.6v-84.5H341.6z"/>
			<g>
				<path class="st7" d="M270.5,133c0,12.7,10.3,23,23,23h150.9c12.7,0,23-10.3,23-23s-10.3-23-23-23H293.6
					C280.9,110,270.5,120.3,270.5,133z"/>
				<path class="st7" d="M313.1,72.6v96.8c0,29.2,23.7,52.9,52.9,52.9h6.1c29.2,0,52.9-23.7,52.9-52.9v-62.8c0-20.5-16.6-37-37-37
					h-71.9C314.4,69.6,313.1,71,313.1,72.6L313.1,72.6z"/>
			</g>
		</g>
		<path class="st8" d="M351.8,432.2H145.4c-6.4,0-11.6-5.2-11.6-11.6V250.3c0-6.4,5.2-11.6,11.6-11.6h206.3
			c6.4,0,11.6,5.2,11.6,11.6v170.3C363.4,427,358.2,432.2,351.8,432.2L351.8,432.2z"/>
		<path class="st9" d="M351.8,238.7h-28.2c6.4,0,11.6,5.2,11.6,11.6v170.3c0,6.4-5.2,11.6-11.6,11.6h28.2c6.4,0,11.6-5.2,11.6-11.6
			V250.3C363.4,243.9,358.2,238.7,351.8,238.7L351.8,238.7z"/>
		<path class="st10" d="M351.8,466.1H145.4c-6.4,0-11.6-5.2-11.6-11.6V284.2c0-6.4,5.2-11.6,11.6-11.6h206.3
			c6.4,0,11.6,5.2,11.6,11.6v170.3C363.4,460.9,358.2,466.1,351.8,466.1z"/>
		<path class="st11" d="M363.4,284.2v170.3c0,6.4-5.2,11.6-11.6,11.6h-28.2c6.4,0,11.6-5.2,11.6-11.6V272.6h16.6
			C358.2,272.6,363.4,277.8,363.4,284.2L363.4,284.2z"/>
		<g>
			<path class="st12" d="M220.5,309.6V367c0,3.8,4.1,6.1,7.3,4.1l46.6-28.7c3.1-1.9,3.1-6.3,0-8.2l-46.6-28.7
				C224.6,303.5,220.5,305.8,220.5,309.6L220.5,309.6z"/>
			
				<ellipse transform="matrix(0.9238 -0.3829 0.3829 0.9238 -144.9705 115.4473)" class="st12" cx="217.5" cy="421.9" rx="15.6" ry="15.6"/>
		</g>
		<path class="st7" d="M377,404.3h-22.5c-10.2,0-18.5-8.3-18.5-18.5v-22.5H377V404.3z"/>
		<path class="st7" d="M244.8,495.1h-23.9c-6,0-10.9-4.9-10.9-10.9v-18.1h45.7v18.1C255.7,490.2,250.8,495.1,244.8,495.1
			L244.8,495.1z"/>
		<ellipse class="st13" cx="118.1" cy="198.5" rx="104.2" ry="105.7"/>
		<path class="st14" d="M197.5,130.1c6.4,13.7,9.9,29,9.9,45.1c0,58.4-46.7,105.7-104.2,105.7c-31.8,0-60.3-14.4-79.4-37.2
			c16.7,35.8,52.6,60.6,94.3,60.6c57.6,0,104.2-47.3,104.2-105.7C222.4,172.4,213,148.5,197.5,130.1L197.5,130.1z"/>
		<g>
			<path class="st3" d="M69.8,190v50.4c0,2.5,1.6,4.6,4,5.2l41.7,10.8c1.7,0.5,3.5,0.5,5.3,0l41.7-10.8c2.4-0.6,4-2.8,4-5.2V190
				H69.8z"/>
			<path class="st4" d="M116.6,165.5l-73.2,22.1c-2.3,0.7-2.3,4,0,4.7l73.2,22.1c1,0.3,2,0.3,3,0l73.2-22.1c2.3-0.7,2.3-4,0-4.7
				l-73.2-22.1C118.7,165.2,117.6,165.2,116.6,165.5L116.6,165.5z"/>
		</g>
		<g>
			<path d="M370.1,194.7c6.8,0,13.2-2.6,18.1-7.4c3-2.9,3.1-7.6,0.2-10.6c-2.9-3-7.6-3.1-10.6-0.2c-2.1,2-4.8,3.2-7.7,3.2h-2.2
				c-2.9,0-5.6-1.1-7.7-3.2c-3-2.9-7.7-2.8-10.6,0.2c-2.9,3-2.8,7.7,0.2,10.6c4.9,4.8,11.4,7.4,18.1,7.4H370.1z"/>
			<path d="M219.3,377.8c1.9,1,3.9,1.6,6,1.6c2.2,0,4.5-0.6,6.5-1.8l46.6-28.7c3.7-2.3,5.9-6.2,5.9-10.5s-2.2-8.2-5.9-10.5
				l-46.6-28.7c-3.8-2.3-8.6-2.4-12.5-0.3c-3.9,2.2-6.3,6.3-6.3,10.8V367C213,371.5,215.4,375.6,219.3,377.8z M228,314.4l38.8,23.9
				L228,362.2L228,314.4z"/>
			<path d="M311.3,414.4h-72.1c-3.1-9.1-11.7-15.6-21.9-15.6c-10.1,0-18.7,6.5-21.9,15.6h-9.6c-4.1,0-7.5,3.4-7.5,7.5
				c0,4.1,3.4,7.5,7.5,7.5h9.6c3.1,9.1,11.7,15.6,21.9,15.6s18.7-6.5,21.9-15.6h72.1c4.1,0,7.5-3.4,7.5-7.5S315.4,414.4,311.3,414.4
				z M217.4,430c-4.5,0-8.1-3.6-8.1-8.1c0-4.5,3.6-8.1,8.1-8.1c4.5,0,8.1,3.6,8.1,8.1C225.5,426.4,221.8,430,217.4,430z"/>
			<path d="M505.6,363.2v-52.6c0-34.9-28.4-63.4-63.4-63.4h-38.3v-26.5c17.1-10.7,28.5-29.7,28.5-51.3v-5.9h12
				c16.8,0,30.5-13.7,30.5-30.5c0-8-3.1-15.3-8.1-20.7V86.4c0-22.6-10-43.8-27.4-58.2c-3.2-2.6-7.9-2.2-10.6,1s-2.2,7.9,1,10.6
				c14,11.5,22,28.5,22,46.6v17c-2.4-0.6-4.9-0.9-7.4-0.9h-12.2c-2.1-22.6-21.2-40.4-44.3-40.4h-71.9c-5.8,0-10.5,4.7-10.5,10.5
				v29.9h-12c-2.6,0-5,0.3-7.4,0.9V30.7c0-5.8,3-10.9,8.1-13.7c5.1-2.8,11-2.6,15.9,0.5l4.5,2.8c6,3.8,13,5.8,20.1,5.8h56.8
				c3.1,0,6.3,0.2,9.3,0.7c4.1,0.6,7.9-2.2,8.6-6.3c0.6-4.1-2.2-7.9-6.3-8.6c-3.8-0.6-7.7-0.9-11.6-0.9h-56.8
				c-4.3,0-8.5-1.2-12.1-3.5l-4.5-2.8c-9.6-6-21.2-6.4-31.2-0.9c-9.9,5.5-15.8,15.5-15.8,26.8v81.6c-5,5.4-8.1,12.7-8.1,20.7
				c0,16.8,13.7,30.5,30.5,30.5h12v5.9c0,21.6,11.4,40.6,28.5,51.3v10.5h-109c3.1-10.3,4.7-21.3,4.7-32.7
				c0-62.4-50.1-113.2-111.7-113.2S6.4,136.1,6.4,198.5c0,62.4,50.1,113.2,111.7,113.2c2.7,0,5.5-0.1,8.2-0.3v143.1
				c0,10.5,8.6,19.1,19.1,19.1h57.1v10.6c0,10.1,8.2,18.4,18.4,18.4h23.9c10.1,0,18.4-8.2,18.4-18.4v-10.6h11.1v30.9
				c0,4.1,3.4,7.5,7.5,7.5h164.3c4.1,0,7.5-3.4,7.5-7.5v-25.9c0-4.1-3.4-7.5-7.5-7.5s-7.5,3.4-7.5,7.5V497H289.3v-23.4h62.5
				c10.5,0,19.1-8.6,19.1-19.1v-42.8h67.7v31.8c0,4.1,3.4,7.5,7.5,7.5s7.5-3.4,7.5-7.5v-31.8h13.4c7.3,0,14.2-2,20-5.6
				c11.2-6.8,18.6-19.1,18.6-33L505.6,363.2L505.6,363.2z M460,133.1c0,8.6-7,15.5-15.5,15.5h-12v-31.1h12
				C453,117.5,460,124.5,460,133.1z M293.6,148.6c-8.6,0-15.5-7-15.5-15.5s7-15.5,15.5-15.5h12v31.1L293.6,148.6z M320.6,169.5
				v-13.3c0,0,0-0.1,0-0.1s0-0.1,0-0.1v-45.9c0,0,0-0.1,0-0.1s0-0.1,0-0.1V77.1h67.4c16.3,0,29.5,13.3,29.5,29.5v62.8
				c0,25-20.4,45.4-45.4,45.4h-6.1C340.9,214.9,320.6,194.5,320.6,169.5z M349.1,227.4c5.4,1.6,11,2.4,16.8,2.4h6.1
				c5.8,0,11.5-0.9,16.9-2.4v32.2c0,8.9-7.2,16.1-16.1,16.1h-1.9v-25.5c0-10.5-8.6-19.1-19.1-19.1h-2.7L349.1,227.4z M363.5,396.8
				C363.4,396.8,363.4,396.8,363.5,396.8c-0.1,0-0.1,0-0.1,0h-8.8c-6.1,0-11-5-11-11v-15h26.1v26.1L363.5,396.8L363.5,396.8z
				 M351.8,246.2c2.3,0,4.1,1.8,4.1,4.1v15.3c-1.3-0.3-2.7-0.5-4.1-0.5H208.4c4.3-5.9,8-12.2,11.1-18.9L351.8,246.2L351.8,246.2z
				 M21.4,198.5c0-54.1,43.4-98.2,96.7-98.2s96.7,44,96.7,98.2s-43.4,98.2-96.7,98.2S21.4,252.7,21.4,198.5z M248.2,484.2
				c0,1.9-1.5,3.4-3.4,3.4h-23.9c-1.9,0-3.4-1.5-3.4-3.4v-10.6h30.7L248.2,484.2z M355.9,454.5c0,2.3-1.9,4.1-4.1,4.1H145.5
				c-2.3,0-4.1-1.8-4.1-4.1V309.2c20.8-4.5,39.4-14.8,54.2-29.1h156.3c2.3,0,4.1,1.8,4.1,4.1v71.4h-40.5c-4.1,0-7.5,3.4-7.5,7.5
				s3.4,7.5,7.5,7.5h13v15c0,14.4,11.7,26,26,26h1.4L355.9,454.5z M488.2,383.4c-3.8,7.9-11.9,13.4-21.3,13.4c-4.4,0-78,0-82.4,0
				v-26.1h74.9c4.1,0,7.5-3.4,7.5-7.5s-3.4-7.5-7.5-7.5h-5.8V308c0-4.1-3.4-7.5-7.5-7.5s-7.5,3.4-7.5,7.5v47.7h-67.7v-64.9h1.9
				c16.3,0,29.7-12.6,31-28.5h38.4c26.7,0,48.4,21.7,48.4,48.4v62.5C490.6,375.2,490.4,379.1,488.2,383.4L488.2,383.4z"/>
			<path d="M195,199.5c4.2-1.3,7.1-5.1,7.1-9.5c0-4.4-2.8-8.3-7.1-9.5l-73.2-22.1c-2.4-0.7-5-0.7-7.4,0l-73.2,22.1
				c-4.2,1.3-7.1,5.1-7.1,9.5c0,2.1,0.6,4,1.7,5.6v24.8c0,4.1,3.4,7.5,7.5,7.5s7.5-3.4,7.5-7.5v-18l11.4,3.4v34.6
				c0,5.9,4,11,9.6,12.5l41.7,10.8c1.5,0.4,3,0.6,4.5,0.6c1.5,0,3-0.2,4.5-0.6l41.7-10.8c5.7-1.5,9.6-6.6,9.6-12.5v-34.6L195,199.5z
				 M118.2,172.9l56.6,17.1l-56.6,17.1L61.6,190L118.2,172.9z M159,238.8l-40.1,10.4c-0.5,0.1-1,0.1-1.5,0l-40.1-10.4v-28.4
				l37.2,11.2c1.2,0.4,2.4,0.5,3.7,0.5c1.2,0,2.5-0.2,3.7-0.5l37.2-11.2V238.8z"/>
		</g>
	</g>
</g>
<g id="Layer_2">
	<path d="M24,495.1h192c4.4,0,8-3.6,8-8v-128c0-0.1-0.1-0.2-0.1-0.3c0-0.9-0.2-1.8-0.5-2.7l-0.1-0.1l-15.9-39.8c-1.2-3-4.2-5-7.4-5
		H40c-3.3,0-6.2,2-7.4,5l-15.9,39.8l-0.1,0.1c-0.3,0.8-0.5,1.7-0.5,2.7c0,0.1-0.1,0.2-0.1,0.3v128C16,491.5,19.6,495.1,24,495.1z
		 M152,479.1v-48h24v48H152z M192,479.1v-56c0-4.4-3.6-8-8-8h-40c-4.4,0-8,3.6-8,8v56H32v-84.4c13.2,7.9,30.1,5.1,40-6.6
		c6,7,14.8,11.1,24,11.1s18-4,24-11.1c6,7,14.8,11.1,24,11.1s18-4,24-11.1c9.9,11.7,26.8,14.5,40,6.6v84.4H192z M128,327.1h25.4
		l4.8,24H128V327.1z M160,367.1c0,8.8-7.2,16-16,16s-16-7.2-16-16H160z M208,367.1c0,8.8-7.2,16-16,16s-16-7.2-16-16H208z M32,367.1
		h32c0,8.8-7.2,16-16,16S32,375.9,32,367.1z M80,367.1h32c0,8.8-7.2,16-16,16S80,375.9,80,367.1z M194.6,327.1l9.6,24h-29.6l-4.8-24
		H194.6z M112,351.1H81.8l4.8-24H112V351.1z M45.4,327.1h24.8l-4.8,24H35.8L45.4,327.1z"/>
	<path d="M112,415.1H56c-4.4,0-8,3.6-8,8v32c0,4.4,3.6,8,8,8h56c4.4,0,8-3.6,8-8v-32C120,418.6,116.4,415.1,112,415.1z M104,447.1
		H64v-16h40V447.1z"/>
	<path d="M456,300.2v-96.3c0-15.9-12.9-28.8-28.8-28.8H292.8c-15.9,0-28.8,12.9-28.8,28.8v262.4c0,15.9,12.9,28.8,28.8,28.8H432
		v-9.6c0-1.5-0.4-3-1.2-4.2c-13.2-21-13.4-47.6-0.6-68.8l0.7-1.2c1.9-3.1,1.4-7.2-1.2-9.8l-48-48c-5.5-5.8-5.4-14.8,0.2-20.5
		c5.6-5.6,14.7-5.7,20.5-0.2l56,56l11.3-11.3L456,363.8v-38.6l18.4,22.1c3.6,4.3,5.6,9.7,5.6,15.4v132.4h16V362.6
		c0-9.4-3.3-18.4-9.3-25.6L456,300.2z M292.8,191.1h134.4c7.1,0,12.8,5.7,12.8,12.8v11.2H280v-11.2
		C280,196.8,285.7,191.1,292.8,191.1z M280,466.3v-11.2h125.3c0.9,8.3,3,16.4,6.4,24H292.8C285.7,479.1,280,473.3,280,466.3z
		 M370.3,321.4c-11.9,12-11.9,31.3,0,43.3l5.7,5.7v36.7h-56c-4.4,0-8-3.6-8-8v-128c0-4.4,3.6-8,8-8h56v54
		C373.9,318.3,372.1,319.7,370.3,321.4z M392,386.4l15.4,15.4c-1.1,3.1-4.1,5.2-7.4,5.2h-8V386.4z M392,312.5v-49.4h8
		c4.4,0,8,3.6,8,8v46C403.2,314.1,397.7,312.5,392,312.5z M424,331.8v-60.7c0-13.3-10.7-24-24-24h-80c-13.3,0-24,10.7-24,24v128
		c0,13.3,10.7,24,24,24h80c3,0,6-0.6,8.8-1.7c-1.9,5.7-3.1,11.7-3.7,17.7H280v-208h160v116.7L424,331.8z"/>
	<path d="M328,367.1h16v24h-16V367.1z"/>
	<path d="M112,47.1h16v16h-16V47.1z"/>
	<path d="M24,199.1h192c4.4,0,8-3.6,8-8v-32c0-4.4-3.6-8-8-8h-8v-56h8c4.4,0,8-3.6,8-8v-32c0-3.4-2.2-6.5-5.5-7.6l-96-32
		c-1.6-0.6-3.4-0.6-5.1,0l-96,32c-3.3,1.1-5.5,4.1-5.5,7.6v32c0,4.4,3.6,8,8,8h8v56h-8c-4.4,0-8,3.6-8,8v32
		C16,195.5,19.6,199.1,24,199.1z M192,151.1h-16v-56h16V151.1z M144,151.1v-56h16v56H144z M80,151.1v-56h16v56H80z M112,95.1h16v56
		h-16V95.1z M32,60.8l88-29.3l88,29.3v18.2H32V60.8z M48,95.1h16v56H48V95.1z M32,167.1h176v16H32V167.1z"/>
	<path d="M112,215.1h16v16h-16V215.1z"/>
	<path d="M112,247.1h16v16h-16V247.1z"/>
	<path d="M112,279.1h16v16h-16V279.1z"/>
	<path d="M256,111.1h16v16h-16V111.1z"/>
	<path d="M224,111.1h16v16h-16V111.1z"/>
	<path d="M288,111.1h16v16h-16V111.1z"/>
	<path d="M320,111.1h16v16h-16V111.1z"/>
	<path d="M352,111.1h16v16h-16V111.1z"/>
	<path d="M352,143.1h16v16h-16V143.1z"/>
</g>
</svg>
